<?xml version="1.0" encoding="UTF-8" standalone="no"?><svg xmlns="http://www.w3.org/2000/svg" xmlns:xlink="http://www.w3.org/1999/xlink" contentScriptType="application/ecmascript" contentStyleType="text/css" height="1119px" preserveAspectRatio="none" style="width:1275px;height:1119px;" version="1.1" viewBox="0 0 1275 1119" width="1275px" zoomAndPan="magnify"><defs><filter height="300%" id="f14f2kkhxwpqqq" width="300%" x="-1" y="-1"><feGaussianBlur result="blurOut" stdDeviation="2.0"/><feColorMatrix in="blurOut" result="blurOut2" type="matrix" values="0 0 0 0 0 0 0 0 0 0 0 0 0 0 0 0 0 0 .4 0"/><feOffset dx="4.0" dy="4.0" in="blurOut2" result="blurOut3"/><feBlend in="SourceGraphic" in2="blurOut3" mode="normal"/></filter></defs><g><text fill="#000000" font-family="sans-serif" font-size="18" lengthAdjust="spacing" textLength="265" x="502.5" y="30.6855">UC-19 — Select Shipping Carrier</text><text fill="#000000" font-family="sans-serif" font-size="18" lengthAdjust="spacing" textLength="211" x="529.5" y="53.3262">(extends UC-17 at Carrier)</text><rect fill="#DDDDDD" height="1048.0625" style="stroke:#A80036;stroke-width:1.0;" width="70" x="1" y="65.2813"/><text fill="#000000" font-family="sans-serif" font-size="13" font-weight="bold" lengthAdjust="spacing" textLength="39" x="16.5" y="78.7764">Actors</text><rect fill="#DDDDDD" height="1048.0625" style="stroke:#A80036;stroke-width:1.0;" width="932" x="337" y="65.2813"/><text fill="#000000" font-family="sans-serif" font-size="13" font-weight="bold" lengthAdjust="spacing" textLength="46" x="780" y="78.7764">System</text><rect fill="#FFFFFF" filter="url(#f14f2kkhxwpqqq)" height="732.0859" style="stroke:#A80036;stroke-width:1.0;" width="10" x="354" y="275.6484"/><rect fill="#FFFFFF" filter="url(#f14f2kkhxwpqqq)" height="398.2188" style="stroke:#A80036;stroke-width:1.0;" width="10" x="745" y="275.6484"/><rect fill="#FFFFFF" filter="url(#f14f2kkhxwpqqq)" height="41.3516" style="stroke:#A80036;stroke-width:1.0;" width="10" x="750" y="435.4063"/><rect fill="#FFFFFF" filter="url(#f14f2kkhxwpqqq)" height="41.3516" style="stroke:#A80036;stroke-width:1.0;" width="10" x="750" y="595.1641"/><rect fill="#FFFFFF" filter="url(#f14f2kkhxwpqqq)" height="212.4609" style="stroke:#A80036;stroke-width:1.0;" width="10" x="745" y="764.9219"/><rect fill="#FFFFFF" filter="url(#f14f2kkhxwpqqq)" height="30.3516" style="stroke:#A80036;stroke-width:1.0;" width="10" x="1127" y="916.6797"/><rect fill="#FFFFFF" filter="url(#f14f2kkhxwpqqq)" height="30.3516" style="stroke:#A80036;stroke-width:1.0;" width="10" x="1224.5" y="306"/><rect fill="#FFFFFF" filter="url(#f14f2kkhxwpqqq)" height="30.3516" style="stroke:#A80036;stroke-width:1.0;" width="10" x="1224.5" y="366.7031"/><rect fill="#FFFFFF" filter="url(#f14f2kkhxwpqqq)" height="30.3516" style="stroke:#A80036;stroke-width:1.0;" width="10" x="1224.5" y="795.2734"/><rect fill="#FFFFFF" filter="url(#f14f2kkhxwpqqq)" height="30.3516" style="stroke:#A80036;stroke-width:1.0;" width="10" x="1224.5" y="855.9766"/><line style="stroke:#A80036;stroke-width:1.0;stroke-dasharray:5.0,5.0;" x1="36" x2="36" y1="170.2422" y2="1025.7344"/><line style="stroke:#A80036;stroke-width:1.0;stroke-dasharray:5.0,5.0;" x1="359" x2="359" y1="170.2422" y2="1025.7344"/><line style="stroke:#A80036;stroke-width:1.0;stroke-dasharray:5.0,5.0;" x1="749.5" x2="749.5" y1="170.2422" y2="1025.7344"/><line style="stroke:#A80036;stroke-width:1.0;stroke-dasharray:5.0,5.0;" x1="1132" x2="1132" y1="170.2422" y2="1025.7344"/><line style="stroke:#A80036;stroke-width:1.0;stroke-dasharray:5.0,5.0;" x1="1229" x2="1229" y1="170.2422" y2="1025.7344"/><text fill="#000000" font-family="sans-serif" font-size="14" lengthAdjust="spacing" textLength="56" x="5" y="167.166">:Supplier</text><ellipse cx="36" cy="95.6328" fill="#FEFECE" filter="url(#f14f2kkhxwpqqq)" rx="8" ry="8" style="stroke:#A80036;stroke-width:2.0;"/><path d="M36,103.6328 L36,130.6328 M23,111.6328 L49,111.6328 M36,130.6328 L23,145.6328 M36,130.6328 L49,145.6328 " fill="none" filter="url(#f14f2kkhxwpqqq)" style="stroke:#A80036;stroke-width:2.0;"/><text fill="#000000" font-family="sans-serif" font-size="14" lengthAdjust="spacing" textLength="56" x="5" y="1039.2676">:Supplier</text><ellipse cx="36" cy="1052.3438" fill="#FEFECE" filter="url(#f14f2kkhxwpqqq)" rx="8" ry="8" style="stroke:#A80036;stroke-width:2.0;"/><path d="M36,1060.3438 L36,1087.3438 M23,1068.3438 L49,1068.3438 M36,1087.3438 L23,1102.3438 M36,1087.3438 L49,1102.3438 " fill="none" filter="url(#f14f2kkhxwpqqq)" style="stroke:#A80036;stroke-width:2.0;"/><rect fill="#FEFECE" filter="url(#f14f2kkhxwpqqq)" height="31.6094" style="stroke:#A80036;stroke-width:1.5;" width="32" x="341" y="133.6328"/><text fill="#000000" font-family="sans-serif" font-size="14" lengthAdjust="spacing" textLength="18" x="348" y="155.166">SP</text><rect fill="#FEFECE" filter="url(#f14f2kkhxwpqqq)" height="31.6094" style="stroke:#A80036;stroke-width:1.5;" width="32" x="341" y="1024.7344"/><text fill="#000000" font-family="sans-serif" font-size="14" lengthAdjust="spacing" textLength="18" x="348" y="1046.2676">SP</text><rect fill="#FEFECE" filter="url(#f14f2kkhxwpqqq)" height="31.6094" style="stroke:#A80036;stroke-width:1.5;" width="167" x="664.5" y="133.6328"/><text fill="#000000" font-family="sans-serif" font-size="14" lengthAdjust="spacing" textLength="153" x="671.5" y="155.166">:CarrierSelectionService</text><rect fill="#FEFECE" filter="url(#f14f2kkhxwpqqq)" height="31.6094" style="stroke:#A80036;stroke-width:1.5;" width="167" x="664.5" y="1024.7344"/><text fill="#000000" font-family="sans-serif" font-size="14" lengthAdjust="spacing" textLength="153" x="671.5" y="1046.2676">:CarrierSelectionService</text><rect fill="#FEFECE" filter="url(#f14f2kkhxwpqqq)" height="31.6094" style="stroke:#A80036;stroke-width:1.5;" width="100" x="1080" y="133.6328"/><text fill="#000000" font-family="sans-serif" font-size="14" lengthAdjust="spacing" textLength="86" x="1087" y="155.166">:LabelService</text><rect fill="#FEFECE" filter="url(#f14f2kkhxwpqqq)" height="31.6094" style="stroke:#A80036;stroke-width:1.5;" width="100" x="1080" y="1024.7344"/><text fill="#000000" font-family="sans-serif" font-size="14" lengthAdjust="spacing" textLength="86" x="1087" y="1046.2676">:LabelService</text><text fill="#000000" font-family="sans-serif" font-size="14" lengthAdjust="spacing" textLength="65" x="1194" y="167.166">:Database</text><path d="M1211.5,116.6328 C1211.5,106.6328 1229.5,106.6328 1229.5,106.6328 C1229.5,106.6328 1247.5,106.6328 1247.5,116.6328 L1247.5,142.6328 C1247.5,152.6328 1229.5,152.6328 1229.5,152.6328 C1229.5,152.6328 1211.5,152.6328 1211.5,142.6328 L1211.5,116.6328 " fill="#FEFECE" filter="url(#f14f2kkhxwpqqq)" style="stroke:#000000;stroke-width:1.5;"/><path d="M1211.5,116.6328 C1211.5,126.6328 1229.5,126.6328 1229.5,126.6328 C1229.5,126.6328 1247.5,126.6328 1247.5,116.6328 " fill="none" style="stroke:#000000;stroke-width:1.5;"/><text fill="#000000" font-family="sans-serif" font-size="14" lengthAdjust="spacing" textLength="65" x="1194" y="1039.2676">:Database</text><path d="M1211.5,1052.3438 C1211.5,1042.3438 1229.5,1042.3438 1229.5,1042.3438 C1229.5,1042.3438 1247.5,1042.3438 1247.5,1052.3438 L1247.5,1078.3438 C1247.5,1088.3438 1229.5,1088.3438 1229.5,1088.3438 C1229.5,1088.3438 1211.5,1088.3438 1211.5,1078.3438 L1211.5,1052.3438 " fill="#FEFECE" filter="url(#f14f2kkhxwpqqq)" style="stroke:#000000;stroke-width:1.5;"/><path d="M1211.5,1052.3438 C1211.5,1062.3438 1229.5,1062.3438 1229.5,1062.3438 C1229.5,1062.3438 1247.5,1062.3438 1247.5,1052.3438 " fill="none" style="stroke:#000000;stroke-width:1.5;"/><rect fill="#FFFFFF" filter="url(#f14f2kkhxwpqqq)" height="732.0859" style="stroke:#A80036;stroke-width:1.0;" width="10" x="354" y="275.6484"/><rect fill="#FFFFFF" filter="url(#f14f2kkhxwpqqq)" height="398.2188" style="stroke:#A80036;stroke-width:1.0;" width="10" x="745" y="275.6484"/><rect fill="#FFFFFF" filter="url(#f14f2kkhxwpqqq)" height="41.3516" style="stroke:#A80036;stroke-width:1.0;" width="10" x="750" y="435.4063"/><rect fill="#FFFFFF" filter="url(#f14f2kkhxwpqqq)" height="41.3516" style="stroke:#A80036;stroke-width:1.0;" width="10" x="750" y="595.1641"/><rect fill="#FFFFFF" filter="url(#f14f2kkhxwpqqq)" height="212.4609" style="stroke:#A80036;stroke-width:1.0;" width="10" x="745" y="764.9219"/><rect fill="#FFFFFF" filter="url(#f14f2kkhxwpqqq)" height="30.3516" style="stroke:#A80036;stroke-width:1.0;" width="10" x="1127" y="916.6797"/><rect fill="#FFFFFF" filter="url(#f14f2kkhxwpqqq)" height="30.3516" style="stroke:#A80036;stroke-width:1.0;" width="10" x="1224.5" y="306"/><rect fill="#FFFFFF" filter="url(#f14f2kkhxwpqqq)" height="30.3516" style="stroke:#A80036;stroke-width:1.0;" width="10" x="1224.5" y="366.7031"/><rect fill="#FFFFFF" filter="url(#f14f2kkhxwpqqq)" height="30.3516" style="stroke:#A80036;stroke-width:1.0;" width="10" x="1224.5" y="795.2734"/><rect fill="#FFFFFF" filter="url(#f14f2kkhxwpqqq)" height="30.3516" style="stroke:#A80036;stroke-width:1.0;" width="10" x="1224.5" y="855.9766"/><path d="M220,185.2422 L220,244.2422 L493,244.2422 L493,195.2422 L483,185.2422 L220,185.2422 " fill="#FBFB77" filter="url(#f14f2kkhxwpqqq)" style="stroke:#A80036;stroke-width:1.0;"/><path d="M483,185.2422 L483,195.2422 L493,195.2422 L483,185.2422 " fill="#FBFB77" style="stroke:#A80036;stroke-width:1.0;"/><text fill="#000000" font-family="sans-serif" font-size="13" lengthAdjust="spacing" textLength="122" x="226" y="203.7373">Triggered from UC-17</text><text fill="#000000" font-family="sans-serif" font-size="13" lengthAdjust="spacing" textLength="134" x="226" y="220.0889">extension point: Carrier</text><text fill="#000000" font-family="sans-serif" font-size="13" lengthAdjust="spacing" textLength="252" x="226" y="236.4404">Condition: [no carrier assigned to shipment]</text><polygon fill="#A80036" points="733,271.6484,743,275.6484,733,279.6484,737,275.6484" style="stroke:#A80036;stroke-width:1.0;"/><line style="stroke:#A80036;stroke-width:1.0;" x1="364" x2="739" y1="275.6484" y2="275.6484"/><text fill="#000000" font-family="sans-serif" font-size="13" lengthAdjust="spacing" textLength="248" x="371" y="270.792">initiateCarrierSelection(shipmentId, orderId)</text><polygon fill="#A80036" points="1212.5,302,1222.5,306,1212.5,310,1216.5,306" style="stroke:#A80036;stroke-width:1.0;"/><line style="stroke:#A80036;stroke-width:1.0;" x1="755" x2="1218.5" y1="306" y2="306"/><text fill="#000000" font-family="sans-serif" font-size="13" lengthAdjust="spacing" textLength="147" x="762" y="301.1436">fetchOrderDetails(orderId)</text><polygon fill="#A80036" points="766,332.3516,756,336.3516,766,340.3516,762,336.3516" style="stroke:#A80036;stroke-width:1.0;"/><line style="stroke:#A80036;stroke-width:1.0;stroke-dasharray:2.0,2.0;" x1="760" x2="1228.5" y1="336.3516" y2="336.3516"/><text fill="#000000" font-family="sans-serif" font-size="13" lengthAdjust="spacing" textLength="222" x="772" y="331.4951">orderDetails{deliveryAddress, urgency}</text><polygon fill="#A80036" points="1212.5,362.7031,1222.5,366.7031,1212.5,370.7031,1216.5,366.7031" style="stroke:#A80036;stroke-width:1.0;"/><line style="stroke:#A80036;stroke-width:1.0;" x1="755" x2="1218.5" y1="366.7031" y2="366.7031"/><text fill="#000000" font-family="sans-serif" font-size="13" lengthAdjust="spacing" textLength="132" x="762" y="361.8467">fetchAvailableCarriers()</text><polygon fill="#A80036" points="766,393.0547,756,397.0547,766,401.0547,762,397.0547" style="stroke:#A80036;stroke-width:1.0;"/><line style="stroke:#A80036;stroke-width:1.0;stroke-dasharray:2.0,2.0;" x1="760" x2="1228.5" y1="397.0547" y2="397.0547"/><text fill="#000000" font-family="sans-serif" font-size="13" lengthAdjust="spacing" textLength="226" x="772" y="392.1982">carriers{name, speed, cost, coverage}[]</text><line style="stroke:#A80036;stroke-width:1.0;" x1="755" x2="802" y1="422.4063" y2="422.4063"/><line style="stroke:#A80036;stroke-width:1.0;" x1="802" x2="802" y1="422.4063" y2="435.4063"/><line style="stroke:#A80036;stroke-width:1.0;" x1="761" x2="802" y1="435.4063" y2="435.4063"/><polygon fill="#A80036" points="771,431.4063,761,435.4063,771,439.4063,767,435.4063" style="stroke:#A80036;stroke-width:1.0;"/><text fill="#000000" font-family="sans-serif" font-size="13" lengthAdjust="spacing" textLength="358" x="767" y="417.5498">applyCarrierSelectionLogic(carriers, deliveryAddress, urgency)</text><line style="stroke:#A80036;stroke-width:1.0;stroke-dasharray:2.0,2.0;" x1="760" x2="802" y1="475.7578" y2="475.7578"/><line style="stroke:#A80036;stroke-width:1.0;stroke-dasharray:2.0,2.0;" x1="802" x2="802" y1="475.7578" y2="488.7578"/><line style="stroke:#A80036;stroke-width:1.0;stroke-dasharray:2.0,2.0;" x1="755" x2="802" y1="488.7578" y2="488.7578"/><polygon fill="#A80036" points="765,484.7578,755,488.7578,765,492.7578,761,488.7578" style="stroke:#A80036;stroke-width:1.0;"/><text fill="#000000" font-family="sans-serif" font-size="13" lengthAdjust="spacing" textLength="91" x="767" y="470.9014">filteredCarriers[]</text><path d="M760,496.7578 L760,555.7578 L990,555.7578 L990,506.7578 L980,496.7578 L760,496.7578 " fill="#FBFB77" filter="url(#f14f2kkhxwpqqq)" style="stroke:#A80036;stroke-width:1.0;"/><path d="M980,496.7578 L980,506.7578 L990,506.7578 L980,496.7578 " fill="#FBFB77" style="stroke:#A80036;stroke-width:1.0;"/><text fill="#000000" font-family="sans-serif" font-size="13" lengthAdjust="spacing" textLength="100" x="766" y="515.2529">Configurable rule:</text><text fill="#000000" font-family="sans-serif" font-size="13" lengthAdjust="spacing" textLength="176" x="766" y="531.6045">fastest delivery vs. lowest cost</text><text fill="#000000" font-family="sans-serif" font-size="13" lengthAdjust="spacing" textLength="209" x="766" y="547.9561">based on address &amp; urgency (FR21)</text><line style="stroke:#A80036;stroke-width:1.0;" x1="755" x2="802" y1="582.1641" y2="582.1641"/><line style="stroke:#A80036;stroke-width:1.0;" x1="802" x2="802" y1="582.1641" y2="595.1641"/><line style="stroke:#A80036;stroke-width:1.0;" x1="761" x2="802" y1="595.1641" y2="595.1641"/><polygon fill="#A80036" points="771,591.1641,761,595.1641,771,599.1641,767,595.1641" style="stroke:#A80036;stroke-width:1.0;"/><text fill="#000000" font-family="sans-serif" font-size="13" lengthAdjust="spacing" textLength="121" x="767" y="577.3076">rankCarriers(carriers)</text><line style="stroke:#A80036;stroke-width:1.0;stroke-dasharray:2.0,2.0;" x1="760" x2="802" y1="635.5156" y2="635.5156"/><line style="stroke:#A80036;stroke-width:1.0;stroke-dasharray:2.0,2.0;" x1="802" x2="802" y1="635.5156" y2="648.5156"/><line style="stroke:#A80036;stroke-width:1.0;stroke-dasharray:2.0,2.0;" x1="755" x2="802" y1="648.5156" y2="648.5156"/><polygon fill="#A80036" points="765,644.5156,755,648.5156,765,652.5156,761,648.5156" style="stroke:#A80036;stroke-width:1.0;"/><text fill="#000000" font-family="sans-serif" font-size="13" lengthAdjust="spacing" textLength="92" x="767" y="630.6592">rankedCarriers[]</text><polygon fill="#A80036" points="375,669.8672,365,673.8672,375,677.8672,371,673.8672" style="stroke:#A80036;stroke-width:1.0;"/><line style="stroke:#A80036;stroke-width:1.0;stroke-dasharray:2.0,2.0;" x1="369" x2="749" y1="673.8672" y2="673.8672"/><text fill="#000000" font-family="sans-serif" font-size="13" lengthAdjust="spacing" textLength="357" x="381" y="669.0107">recommendedCarrier{carrierId, name, estimatedDelivery, cost}</text><polygon fill="#A80036" points="47,700.2188,37,704.2188,47,708.2188,43,704.2188" style="stroke:#A80036;stroke-width:1.0;"/><line style="stroke:#A80036;stroke-width:1.0;stroke-dasharray:2.0,2.0;" x1="41" x2="353" y1="704.2188" y2="704.2188"/><text fill="#000000" font-family="sans-serif" font-size="13" lengthAdjust="spacing" textLength="294" x="53" y="699.3623">displayRecommendedCarrier(recommendedCarrier)</text><polygon fill="#A80036" points="342,730.5703,352,734.5703,342,738.5703,346,734.5703" style="stroke:#A80036;stroke-width:1.0;"/><line style="stroke:#A80036;stroke-width:1.0;" x1="36" x2="348" y1="734.5703" y2="734.5703"/><text fill="#000000" font-family="sans-serif" font-size="13" lengthAdjust="spacing" textLength="134" x="43" y="729.7139">confirmCarrier(carrierId)</text><polygon fill="#A80036" points="733,760.9219,743,764.9219,733,768.9219,737,764.9219" style="stroke:#A80036;stroke-width:1.0;"/><line style="stroke:#A80036;stroke-width:1.0;" x1="364" x2="739" y1="764.9219" y2="764.9219"/><text fill="#000000" font-family="sans-serif" font-size="13" lengthAdjust="spacing" textLength="201" x="371" y="760.0654">assignCarrier(shipmentId, carrierId)</text><polygon fill="#A80036" points="1212.5,791.2734,1222.5,795.2734,1212.5,799.2734,1216.5,795.2734" style="stroke:#A80036;stroke-width:1.0;"/><line style="stroke:#A80036;stroke-width:1.0;" x1="755" x2="1218.5" y1="795.2734" y2="795.2734"/><text fill="#000000" font-family="sans-serif" font-size="13" lengthAdjust="spacing" textLength="257" x="762" y="790.417">updateShipmentCarrier(shipmentId, carrierId)</text><polygon fill="#A80036" points="766,821.625,756,825.625,766,829.625,762,825.625" style="stroke:#A80036;stroke-width:1.0;"/><line style="stroke:#A80036;stroke-width:1.0;stroke-dasharray:2.0,2.0;" x1="760" x2="1228.5" y1="825.625" y2="825.625"/><text fill="#000000" font-family="sans-serif" font-size="13" lengthAdjust="spacing" textLength="46" x="772" y="820.7686">updated</text><polygon fill="#A80036" points="1212.5,851.9766,1222.5,855.9766,1212.5,859.9766,1216.5,855.9766" style="stroke:#A80036;stroke-width:1.0;"/><line style="stroke:#A80036;stroke-width:1.0;" x1="755" x2="1218.5" y1="855.9766" y2="855.9766"/><text fill="#000000" font-family="sans-serif" font-size="13" lengthAdjust="spacing" textLength="205" x="762" y="851.1201">linkCarrierToOrder(orderId, carrierId)</text><polygon fill="#A80036" points="766,882.3281,756,886.3281,766,890.3281,762,886.3281" style="stroke:#A80036;stroke-width:1.0;"/><line style="stroke:#A80036;stroke-width:1.0;stroke-dasharray:2.0,2.0;" x1="760" x2="1228.5" y1="886.3281" y2="886.3281"/><text fill="#000000" font-family="sans-serif" font-size="13" lengthAdjust="spacing" textLength="34" x="772" y="881.4717">linked</text><polygon fill="#A80036" points="1115,912.6797,1125,916.6797,1115,920.6797,1119,916.6797" style="stroke:#A80036;stroke-width:1.0;"/><line style="stroke:#A80036;stroke-width:1.0;" x1="755" x2="1121" y1="916.6797" y2="916.6797"/><text fill="#000000" font-family="sans-serif" font-size="13" lengthAdjust="spacing" textLength="233" x="762" y="911.8232">initiateLabelGeneration(orderId, carrierId)</text><polygon fill="#A80036" points="766,943.0313,756,947.0313,766,951.0313,762,947.0313" style="stroke:#A80036;stroke-width:1.0;"/><line style="stroke:#A80036;stroke-width:1.0;stroke-dasharray:2.0,2.0;" x1="760" x2="1131" y1="947.0313" y2="947.0313"/><text fill="#000000" font-family="sans-serif" font-size="13" lengthAdjust="spacing" textLength="140" x="772" y="942.1748">labelGenerationStarted()</text><polygon fill="#A80036" points="375,973.3828,365,977.3828,375,981.3828,371,977.3828" style="stroke:#A80036;stroke-width:1.0;"/><line style="stroke:#A80036;stroke-width:1.0;stroke-dasharray:2.0,2.0;" x1="369" x2="749" y1="977.3828" y2="977.3828"/><text fill="#000000" font-family="sans-serif" font-size="13" lengthAdjust="spacing" textLength="254" x="381" y="972.5264">carrierAssigned{carrierId, estimatedDelivery}</text><polygon fill="#A80036" points="47,1003.7344,37,1007.7344,47,1011.7344,43,1007.7344" style="stroke:#A80036;stroke-width:1.0;"/><line style="stroke:#A80036;stroke-width:1.0;stroke-dasharray:2.0,2.0;" x1="41" x2="358" y1="1007.7344" y2="1007.7344"/><text fill="#000000" font-family="sans-serif" font-size="13" lengthAdjust="spacing" textLength="288" x="53" y="1002.8779">confirmCarrierAssigned_LabelGenerationInitiated()</text><!--MD5=[3e0655683539614987b7e3364ccf5ffa]
@startuml UC-19_Select_Shipping_Carrier
title UC-19 — Select Shipping Carrier\n(extends UC-17 at Carrier)

note over SP : Triggered from UC-17\nextension point: Carrier\nCondition: [no carrier assigned to shipment]

box "Actors"
actor ":Supplier" as Supplier
end box

box "System"
participant ":SupplierPortal" as SP
participant ":CarrierSelectionService" as CSS
participant ":LabelService" as LS
database ":Database" as DB
end box

SP -> CSS : initiateCarrierSelection(shipmentId, orderId)
activate SP
activate CSS

CSS -> DB : fetchOrderDetails(orderId)
activate DB
DB - -> CSS : orderDetails{deliveryAddress, urgency}
deactivate DB

CSS -> DB : fetchAvailableCarriers()
activate DB
DB - -> CSS : carriers{name, speed, cost, coverage}[]
deactivate DB

CSS -> CSS : applyCarrierSelectionLogic(carriers, deliveryAddress, urgency)
activate CSS
CSS - -> CSS : filteredCarriers[]
deactivate CSS
note right of CSS
  Configurable rule:
  fastest delivery vs. lowest cost
  based on address & urgency (FR21)
end note

CSS -> CSS : rankCarriers(carriers)
activate CSS
CSS - -> CSS : rankedCarriers[]
deactivate CSS
CSS - -> SP : recommendedCarrier{carrierId, name, estimatedDelivery, cost}
deactivate CSS

SP - -> Supplier : displayRecommendedCarrier(recommendedCarrier)

Supplier -> SP : confirmCarrier(carrierId)
SP -> CSS : assignCarrier(shipmentId, carrierId)
activate CSS

CSS -> DB : updateShipmentCarrier(shipmentId, carrierId)
activate DB
DB - -> CSS : updated
deactivate DB

CSS -> DB : linkCarrierToOrder(orderId, carrierId)
activate DB
DB - -> CSS : linked
deactivate DB

CSS -> LS : initiateLabelGeneration(orderId, carrierId)
activate LS
LS - -> CSS : labelGenerationStarted()
deactivate LS

CSS - -> SP : carrierAssigned{carrierId, estimatedDelivery}
deactivate CSS

SP - -> Supplier : confirmCarrierAssigned_LabelGenerationInitiated()
deactivate SP

@enduml

PlantUML version 1.2021.00(Sun Jan 10 12:25:05 EET 2021)
(MIT source distribution)
Java Runtime: Java(TM) SE Runtime Environment
JVM: Java HotSpot(TM) 64-Bit Server VM
Default Encoding: UTF-8
Language: en
Country: US
--></g></svg>