<?xml version="1.0" encoding="UTF-8" standalone="no"?><svg xmlns="http://www.w3.org/2000/svg" xmlns:xlink="http://www.w3.org/1999/xlink" contentScriptType="application/ecmascript" contentStyleType="text/css" height="1022px" preserveAspectRatio="none" style="width:1380px;height:1022px;" version="1.1" viewBox="0 0 1380 1022" width="1380px" zoomAndPan="magnify"><defs><filter height="300%" id="f1hl51qlcu9pm5" width="300%" x="-1" y="-1"><feGaussianBlur result="blurOut" stdDeviation="2.0"/><feColorMatrix in="blurOut" result="blurOut2" type="matrix" values="0 0 0 0 0 0 0 0 0 0 0 0 0 0 0 0 0 0 .4 0"/><feOffset dx="4.0" dy="4.0" in="blurOut2" result="blurOut3"/><feBlend in="SourceGraphic" in2="blurOut3" mode="normal"/></filter></defs><g><text fill="#000000" font-family="sans-serif" font-size="18" lengthAdjust="spacing" textLength="389" x="493.5" y="30.6855">UC-04 — View Supplier Performance &amp; Analytics</text><text fill="#000000" font-family="sans-serif" font-size="18" lengthAdjust="spacing" textLength="240" x="568" y="53.3262">(extends UC-05 at Evaluation)</text><rect fill="#DDDDDD" height="951.0078" style="stroke:#A80036;stroke-width:1.0;" width="147" x="1" y="65.2813"/><text fill="#000000" font-family="sans-serif" font-size="13" font-weight="bold" lengthAdjust="spacing" textLength="39" x="55" y="78.7764">Actors</text><rect fill="#DDDDDD" height="951.0078" style="stroke:#A80036;stroke-width:1.0;" width="985.5" x="374.5" y="65.2813"/><text fill="#000000" font-family="sans-serif" font-size="13" font-weight="bold" lengthAdjust="spacing" textLength="46" x="844.25" y="78.7764">System</text><rect fill="#FFFFFF" filter="url(#f1hl51qlcu9pm5)" height="635.0313" style="stroke:#A80036;stroke-width:1.0;" width="10" x="388.5" y="275.6484"/><rect fill="#FFFFFF" filter="url(#f1hl51qlcu9pm5)" height="392.2188" style="stroke:#A80036;stroke-width:1.0;" width="10" x="743.5" y="306"/><rect fill="#FFFFFF" filter="url(#f1hl51qlcu9pm5)" height="41.3516" style="stroke:#A80036;stroke-width:1.0;" width="10" x="748.5" y="491.1094"/><rect fill="#FFFFFF" filter="url(#f1hl51qlcu9pm5)" height="91.0547" style="stroke:#A80036;stroke-width:1.0;" width="10" x="743.5" y="789.2734"/><rect fill="#FFFFFF" filter="url(#f1hl51qlcu9pm5)" height="91.0547" style="stroke:#A80036;stroke-width:1.0;" width="10" x="1000.5" y="576.8125"/><rect fill="#FFFFFF" filter="url(#f1hl51qlcu9pm5)" height="30.3516" style="stroke:#A80036;stroke-width:1.0;" width="10" x="1315.5" y="336.3516"/><rect fill="#FFFFFF" filter="url(#f1hl51qlcu9pm5)" height="30.3516" style="stroke:#A80036;stroke-width:1.0;" width="10" x="1315.5" y="422.4063"/><rect fill="#FFFFFF" filter="url(#f1hl51qlcu9pm5)" height="30.3516" style="stroke:#A80036;stroke-width:1.0;" width="10" x="1315.5" y="607.1641"/><rect fill="#FFFFFF" filter="url(#f1hl51qlcu9pm5)" height="30.3516" style="stroke:#A80036;stroke-width:1.0;" width="10" x="1315.5" y="819.625"/><rect fill="#FFFFFF" filter="url(#f1hl51qlcu9pm5)" height="165.7578" style="stroke:#000000;stroke-width:2.0;" width="723.5" x="642.5" y="381.7031"/><line style="stroke:#A80036;stroke-width:1.0;stroke-dasharray:5.0,5.0;" x1="74" x2="74" y1="170.2422" y2="928.6797"/><line style="stroke:#A80036;stroke-width:1.0;stroke-dasharray:5.0,5.0;" x1="393.5" x2="393.5" y1="170.2422" y2="928.6797"/><line style="stroke:#A80036;stroke-width:1.0;stroke-dasharray:5.0,5.0;" x1="748.5" x2="748.5" y1="170.2422" y2="928.6797"/><line style="stroke:#A80036;stroke-width:1.0;stroke-dasharray:5.0,5.0;" x1="1005" x2="1005" y1="170.2422" y2="928.6797"/><line style="stroke:#A80036;stroke-width:1.0;stroke-dasharray:5.0,5.0;" x1="1320" x2="1320" y1="170.2422" y2="928.6797"/><text fill="#000000" font-family="sans-serif" font-size="14" lengthAdjust="spacing" textLength="133" x="5" y="167.166">:WarehouseManager</text><ellipse cx="74.5" cy="95.6328" fill="#FEFECE" filter="url(#f1hl51qlcu9pm5)" rx="8" ry="8" style="stroke:#A80036;stroke-width:2.0;"/><path d="M74.5,103.6328 L74.5,130.6328 M61.5,111.6328 L87.5,111.6328 M74.5,130.6328 L61.5,145.6328 M74.5,130.6328 L87.5,145.6328 " fill="none" filter="url(#f1hl51qlcu9pm5)" style="stroke:#A80036;stroke-width:2.0;"/><text fill="#000000" font-family="sans-serif" font-size="14" lengthAdjust="spacing" textLength="133" x="5" y="942.2129">:WarehouseManager</text><ellipse cx="74.5" cy="955.2891" fill="#FEFECE" filter="url(#f1hl51qlcu9pm5)" rx="8" ry="8" style="stroke:#A80036;stroke-width:2.0;"/><path d="M74.5,963.2891 L74.5,990.2891 M61.5,971.2891 L87.5,971.2891 M74.5,990.2891 L61.5,1005.2891 M74.5,990.2891 L87.5,1005.2891 " fill="none" filter="url(#f1hl51qlcu9pm5)" style="stroke:#A80036;stroke-width:2.0;"/><rect fill="#FEFECE" filter="url(#f1hl51qlcu9pm5)" height="31.6094" style="stroke:#A80036;stroke-width:1.5;" width="26" x="378.5" y="133.6328"/><text fill="#000000" font-family="sans-serif" font-size="14" lengthAdjust="spacing" textLength="12" x="385.5" y="155.166">UI</text><rect fill="#FEFECE" filter="url(#f1hl51qlcu9pm5)" height="31.6094" style="stroke:#A80036;stroke-width:1.5;" width="26" x="378.5" y="927.6797"/><text fill="#000000" font-family="sans-serif" font-size="14" lengthAdjust="spacing" textLength="12" x="385.5" y="949.2129">UI</text><rect fill="#FEFECE" filter="url(#f1hl51qlcu9pm5)" height="31.6094" style="stroke:#A80036;stroke-width:1.5;" width="188" x="652.5" y="133.6328"/><text fill="#000000" font-family="sans-serif" font-size="14" lengthAdjust="spacing" textLength="174" x="659.5" y="155.166">:SupplierAnalyticsController</text><rect fill="#FEFECE" filter="url(#f1hl51qlcu9pm5)" height="31.6094" style="stroke:#A80036;stroke-width:1.5;" width="188" x="652.5" y="927.6797"/><text fill="#000000" font-family="sans-serif" font-size="14" lengthAdjust="spacing" textLength="174" x="659.5" y="949.2129">:SupplierAnalyticsController</text><rect fill="#FEFECE" filter="url(#f1hl51qlcu9pm5)" height="31.6094" style="stroke:#A80036;stroke-width:1.5;" width="119" x="944" y="133.6328"/><text fill="#000000" font-family="sans-serif" font-size="14" lengthAdjust="spacing" textLength="105" x="951" y="155.166">:ContractService</text><rect fill="#FEFECE" filter="url(#f1hl51qlcu9pm5)" height="31.6094" style="stroke:#A80036;stroke-width:1.5;" width="119" x="944" y="927.6797"/><text fill="#000000" font-family="sans-serif" font-size="14" lengthAdjust="spacing" textLength="105" x="951" y="949.2129">:ContractService</text><text fill="#000000" font-family="sans-serif" font-size="14" lengthAdjust="spacing" textLength="65" x="1285" y="167.166">:Database</text><path d="M1302.5,116.6328 C1302.5,106.6328 1320.5,106.6328 1320.5,106.6328 C1320.5,106.6328 1338.5,106.6328 1338.5,116.6328 L1338.5,142.6328 C1338.5,152.6328 1320.5,152.6328 1320.5,152.6328 C1320.5,152.6328 1302.5,152.6328 1302.5,142.6328 L1302.5,116.6328 " fill="#FEFECE" filter="url(#f1hl51qlcu9pm5)" style="stroke:#000000;stroke-width:1.5;"/><path d="M1302.5,116.6328 C1302.5,126.6328 1320.5,126.6328 1320.5,126.6328 C1320.5,126.6328 1338.5,126.6328 1338.5,116.6328 " fill="none" style="stroke:#000000;stroke-width:1.5;"/><text fill="#000000" font-family="sans-serif" font-size="14" lengthAdjust="spacing" textLength="65" x="1285" y="942.2129">:Database</text><path d="M1302.5,955.2891 C1302.5,945.2891 1320.5,945.2891 1320.5,945.2891 C1320.5,945.2891 1338.5,945.2891 1338.5,955.2891 L1338.5,981.2891 C1338.5,991.2891 1320.5,991.2891 1320.5,991.2891 C1320.5,991.2891 1302.5,991.2891 1302.5,981.2891 L1302.5,955.2891 " fill="#FEFECE" filter="url(#f1hl51qlcu9pm5)" style="stroke:#000000;stroke-width:1.5;"/><path d="M1302.5,955.2891 C1302.5,965.2891 1320.5,965.2891 1320.5,965.2891 C1320.5,965.2891 1338.5,965.2891 1338.5,955.2891 " fill="none" style="stroke:#000000;stroke-width:1.5;"/><rect fill="#FFFFFF" filter="url(#f1hl51qlcu9pm5)" height="635.0313" style="stroke:#A80036;stroke-width:1.0;" width="10" x="388.5" y="275.6484"/><rect fill="#FFFFFF" filter="url(#f1hl51qlcu9pm5)" height="392.2188" style="stroke:#A80036;stroke-width:1.0;" width="10" x="743.5" y="306"/><rect fill="#FFFFFF" filter="url(#f1hl51qlcu9pm5)" height="41.3516" style="stroke:#A80036;stroke-width:1.0;" width="10" x="748.5" y="491.1094"/><rect fill="#FFFFFF" filter="url(#f1hl51qlcu9pm5)" height="91.0547" style="stroke:#A80036;stroke-width:1.0;" width="10" x="743.5" y="789.2734"/><rect fill="#FFFFFF" filter="url(#f1hl51qlcu9pm5)" height="91.0547" style="stroke:#A80036;stroke-width:1.0;" width="10" x="1000.5" y="576.8125"/><rect fill="#FFFFFF" filter="url(#f1hl51qlcu9pm5)" height="30.3516" style="stroke:#A80036;stroke-width:1.0;" width="10" x="1315.5" y="336.3516"/><rect fill="#FFFFFF" filter="url(#f1hl51qlcu9pm5)" height="30.3516" style="stroke:#A80036;stroke-width:1.0;" width="10" x="1315.5" y="422.4063"/><rect fill="#FFFFFF" filter="url(#f1hl51qlcu9pm5)" height="30.3516" style="stroke:#A80036;stroke-width:1.0;" width="10" x="1315.5" y="607.1641"/><rect fill="#FFFFFF" filter="url(#f1hl51qlcu9pm5)" height="30.3516" style="stroke:#A80036;stroke-width:1.0;" width="10" x="1315.5" y="819.625"/><path d="M234,185.2422 L234,244.2422 L548,244.2422 L548,195.2422 L538,185.2422 L234,185.2422 " fill="#FBFB77" filter="url(#f1hl51qlcu9pm5)" style="stroke:#A80036;stroke-width:1.0;"/><path d="M538,185.2422 L538,195.2422 L548,195.2422 L538,185.2422 " fill="#FBFB77" style="stroke:#A80036;stroke-width:1.0;"/><text fill="#000000" font-family="sans-serif" font-size="13" lengthAdjust="spacing" textLength="122" x="240" y="203.7373">Triggered from UC-05</text><text fill="#000000" font-family="sans-serif" font-size="13" lengthAdjust="spacing" textLength="155" x="240" y="220.0889">extension point: Evaluation</text><text fill="#000000" font-family="sans-serif" font-size="13" lengthAdjust="spacing" textLength="293" x="240" y="236.4404">Condition: [manager selects 'evaluate before order']</text><polygon fill="#A80036" points="376.5,271.6484,386.5,275.6484,376.5,279.6484,380.5,275.6484" style="stroke:#A80036;stroke-width:1.0;"/><line style="stroke:#A80036;stroke-width:1.0;" x1="74.5" x2="382.5" y1="275.6484" y2="275.6484"/><text fill="#000000" font-family="sans-serif" font-size="13" lengthAdjust="spacing" textLength="161" x="81.5" y="270.792">selectEvaluateBeforeOrder()</text><polygon fill="#A80036" points="731.5,302,741.5,306,731.5,310,735.5,306" style="stroke:#A80036;stroke-width:1.0;"/><line style="stroke:#A80036;stroke-width:1.0;" x1="398.5" x2="737.5" y1="306" y2="306"/><text fill="#000000" font-family="sans-serif" font-size="13" lengthAdjust="spacing" textLength="152" x="405.5" y="301.1436">requestSupplierAnalytics()</text><polygon fill="#A80036" points="1303.5,332.3516,1313.5,336.3516,1303.5,340.3516,1307.5,336.3516" style="stroke:#A80036;stroke-width:1.0;"/><line style="stroke:#A80036;stroke-width:1.0;" x1="753.5" x2="1309.5" y1="336.3516" y2="336.3516"/><text fill="#000000" font-family="sans-serif" font-size="13" lengthAdjust="spacing" textLength="105" x="760.5" y="331.4951">fetchAllSuppliers()</text><polygon fill="#A80036" points="764.5,362.7031,754.5,366.7031,764.5,370.7031,760.5,366.7031" style="stroke:#A80036;stroke-width:1.0;"/><line style="stroke:#A80036;stroke-width:1.0;stroke-dasharray:2.0,2.0;" x1="758.5" x2="1319.5" y1="366.7031" y2="366.7031"/><text fill="#000000" font-family="sans-serif" font-size="13" lengthAdjust="spacing" textLength="60" x="770.5" y="361.8467">suppliers[]</text><path d="M642.5,381.7031 L715.5,381.7031 L715.5,389.7031 L705.5,399.7031 L642.5,399.7031 L642.5,381.7031 " fill="#EEEEEE" style="stroke:#000000;stroke-width:1.0;"/><rect fill="none" height="165.7578" style="stroke:#000000;stroke-width:2.0;" width="723.5" x="642.5" y="381.7031"/><text fill="#000000" font-family="sans-serif" font-size="13" font-weight="bold" lengthAdjust="spacing" textLength="28" x="657.5" y="396.1982">loop</text><text fill="#000000" font-family="sans-serif" font-size="11" font-weight="bold" lengthAdjust="spacing" textLength="171" x="730.5" y="395.1221">[for each supplier in suppliers]</text><polygon fill="#A80036" points="1303.5,418.4063,1313.5,422.4063,1303.5,426.4063,1307.5,422.4063" style="stroke:#A80036;stroke-width:1.0;"/><line style="stroke:#A80036;stroke-width:1.0;" x1="753.5" x2="1309.5" y1="422.4063" y2="422.4063"/><text fill="#000000" font-family="sans-serif" font-size="13" lengthAdjust="spacing" textLength="177" x="760.5" y="417.5498">fetchDeliveryHistory(supplierId)</text><polygon fill="#A80036" points="764.5,448.7578,754.5,452.7578,764.5,456.7578,760.5,452.7578" style="stroke:#A80036;stroke-width:1.0;"/><line style="stroke:#A80036;stroke-width:1.0;stroke-dasharray:2.0,2.0;" x1="758.5" x2="1319.5" y1="452.7578" y2="452.7578"/><text fill="#000000" font-family="sans-serif" font-size="13" lengthAdjust="spacing" textLength="92" x="770.5" y="447.9014">deliveryHistory[]</text><line style="stroke:#A80036;stroke-width:1.0;" x1="753.5" x2="800.5" y1="478.1094" y2="478.1094"/><line style="stroke:#A80036;stroke-width:1.0;" x1="800.5" x2="800.5" y1="478.1094" y2="491.1094"/><line style="stroke:#A80036;stroke-width:1.0;" x1="759.5" x2="800.5" y1="491.1094" y2="491.1094"/><polygon fill="#A80036" points="769.5,487.1094,759.5,491.1094,769.5,495.1094,765.5,491.1094" style="stroke:#A80036;stroke-width:1.0;"/><text fill="#000000" font-family="sans-serif" font-size="13" lengthAdjust="spacing" textLength="233" x="765.5" y="473.2529">calculateAccuracyScore(deliveryHistory)</text><line style="stroke:#A80036;stroke-width:1.0;stroke-dasharray:2.0,2.0;" x1="758.5" x2="800.5" y1="531.4609" y2="531.4609"/><line style="stroke:#A80036;stroke-width:1.0;stroke-dasharray:2.0,2.0;" x1="800.5" x2="800.5" y1="531.4609" y2="544.4609"/><line style="stroke:#A80036;stroke-width:1.0;stroke-dasharray:2.0,2.0;" x1="753.5" x2="800.5" y1="544.4609" y2="544.4609"/><polygon fill="#A80036" points="763.5,540.4609,753.5,544.4609,763.5,548.4609,759.5,544.4609" style="stroke:#A80036;stroke-width:1.0;"/><text fill="#000000" font-family="sans-serif" font-size="13" lengthAdjust="spacing" textLength="87" x="765.5" y="526.6045">accuracyScore</text><polygon fill="#A80036" points="988.5,572.8125,998.5,576.8125,988.5,580.8125,992.5,576.8125" style="stroke:#A80036;stroke-width:1.0;"/><line style="stroke:#A80036;stroke-width:1.0;" x1="753.5" x2="994.5" y1="576.8125" y2="576.8125"/><text fill="#000000" font-family="sans-serif" font-size="13" lengthAdjust="spacing" textLength="139" x="760.5" y="571.9561">fetchSupplierContracts()</text><polygon fill="#A80036" points="1303.5,603.1641,1313.5,607.1641,1303.5,611.1641,1307.5,607.1641" style="stroke:#A80036;stroke-width:1.0;"/><line style="stroke:#A80036;stroke-width:1.0;" x1="1010.5" x2="1309.5" y1="607.1641" y2="607.1641"/><text fill="#000000" font-family="sans-serif" font-size="13" lengthAdjust="spacing" textLength="126" x="1017.5" y="602.3076">getContractVersions()</text><polygon fill="#A80036" points="1021.5,633.5156,1011.5,637.5156,1021.5,641.5156,1017.5,637.5156" style="stroke:#A80036;stroke-width:1.0;"/><line style="stroke:#A80036;stroke-width:1.0;stroke-dasharray:2.0,2.0;" x1="1015.5" x2="1319.5" y1="637.5156" y2="637.5156"/><text fill="#000000" font-family="sans-serif" font-size="13" lengthAdjust="spacing" textLength="281" x="1027.5" y="632.6592">contracts{pricingTiers, volumeDiscounts, history}</text><polygon fill="#A80036" points="764.5,663.8672,754.5,667.8672,764.5,671.8672,760.5,667.8672" style="stroke:#A80036;stroke-width:1.0;"/><line style="stroke:#A80036;stroke-width:1.0;stroke-dasharray:2.0,2.0;" x1="758.5" x2="1004.5" y1="667.8672" y2="667.8672"/><text fill="#000000" font-family="sans-serif" font-size="13" lengthAdjust="spacing" textLength="82" x="770.5" y="663.0107">contractData[]</text><polygon fill="#A80036" points="409.5,694.2188,399.5,698.2188,409.5,702.2188,405.5,698.2188" style="stroke:#A80036;stroke-width:1.0;"/><line style="stroke:#A80036;stroke-width:1.0;stroke-dasharray:2.0,2.0;" x1="403.5" x2="747.5" y1="698.2188" y2="698.2188"/><text fill="#000000" font-family="sans-serif" font-size="13" lengthAdjust="spacing" textLength="321" x="415.5" y="693.3623">supplierReport{accuracyScores, deliveryPerf, contracts}</text><polygon fill="#A80036" points="85.5,724.5703,75.5,728.5703,85.5,732.5703,81.5,728.5703" style="stroke:#A80036;stroke-width:1.0;"/><line style="stroke:#A80036;stroke-width:1.0;stroke-dasharray:2.0,2.0;" x1="79.5" x2="387.5" y1="728.5703" y2="728.5703"/><text fill="#000000" font-family="sans-serif" font-size="13" lengthAdjust="spacing" textLength="290" x="91.5" y="723.7139">displaySupplierPerformanceReport(supplierReport)</text><polygon fill="#A80036" points="376.5,754.9219,386.5,758.9219,376.5,762.9219,380.5,758.9219" style="stroke:#A80036;stroke-width:1.0;"/><line style="stroke:#A80036;stroke-width:1.0;" x1="74.5" x2="382.5" y1="758.9219" y2="758.9219"/><text fill="#000000" font-family="sans-serif" font-size="13" lengthAdjust="spacing" textLength="197" x="81.5" y="754.0654">selectPreferredSupplier(supplierId)</text><polygon fill="#A80036" points="731.5,785.2734,741.5,789.2734,731.5,793.2734,735.5,789.2734" style="stroke:#A80036;stroke-width:1.0;"/><line style="stroke:#A80036;stroke-width:1.0;" x1="398.5" x2="737.5" y1="789.2734" y2="789.2734"/><text fill="#000000" font-family="sans-serif" font-size="13" lengthAdjust="spacing" textLength="267" x="405.5" y="784.417">recordManagerDecision(supplierId, managerId)</text><polygon fill="#A80036" points="1303.5,815.625,1313.5,819.625,1303.5,823.625,1307.5,819.625" style="stroke:#A80036;stroke-width:1.0;"/><line style="stroke:#A80036;stroke-width:1.0;" x1="753.5" x2="1309.5" y1="819.625" y2="819.625"/><text fill="#000000" font-family="sans-serif" font-size="13" lengthAdjust="spacing" textLength="289" x="760.5" y="814.7686">persistDecision(supplierId, managerId, timestamp)</text><polygon fill="#A80036" points="764.5,845.9766,754.5,849.9766,764.5,853.9766,760.5,849.9766" style="stroke:#A80036;stroke-width:1.0;"/><line style="stroke:#A80036;stroke-width:1.0;stroke-dasharray:2.0,2.0;" x1="758.5" x2="1319.5" y1="849.9766" y2="849.9766"/><text fill="#000000" font-family="sans-serif" font-size="13" lengthAdjust="spacing" textLength="33" x="770.5" y="845.1201">saved</text><polygon fill="#A80036" points="409.5,876.3281,399.5,880.3281,409.5,884.3281,405.5,880.3281" style="stroke:#A80036;stroke-width:1.0;"/><line style="stroke:#A80036;stroke-width:1.0;stroke-dasharray:2.0,2.0;" x1="403.5" x2="747.5" y1="880.3281" y2="880.3281"/><text fill="#000000" font-family="sans-serif" font-size="13" lengthAdjust="spacing" textLength="111" x="415.5" y="875.4717">decisionRecorded()</text><polygon fill="#A80036" points="85.5,906.6797,75.5,910.6797,85.5,914.6797,81.5,910.6797" style="stroke:#A80036;stroke-width:1.0;"/><line style="stroke:#A80036;stroke-width:1.0;stroke-dasharray:2.0,2.0;" x1="79.5" x2="392.5" y1="910.6797" y2="910.6797"/><text fill="#000000" font-family="sans-serif" font-size="13" lengthAdjust="spacing" textLength="155" x="91.5" y="905.8232">confirmDecisionRecorded()</text><!--MD5=[243d670a7f1dfe0263fe73d33a9e0c92]
@startuml UC-04_View_Supplier_Performance_Analytics
title UC-04 — View Supplier Performance & Analytics\n(extends UC-05 at Evaluation)

note over UI : Triggered from UC-05\nextension point: Evaluation\nCondition: [manager selects 'evaluate before order']

box "Actors"
actor ":WarehouseManager" as Manager
end box

box "System"
participant ":ProcurementUI" as UI
participant ":SupplierAnalyticsController" as SAC
participant ":ContractService" as CS
database ":Database" as DB
end box

Manager -> UI : selectEvaluateBeforeOrder()
activate UI

UI -> SAC : requestSupplierAnalytics()
activate SAC

SAC -> DB : fetchAllSuppliers()
activate DB
DB - -> SAC : suppliers[]
deactivate DB

loop for each supplier in suppliers
    SAC -> DB : fetchDeliveryHistory(supplierId)
    activate DB
    DB - -> SAC : deliveryHistory[]
    deactivate DB
    SAC -> SAC : calculateAccuracyScore(deliveryHistory)
    activate SAC
    SAC - -> SAC : accuracyScore
    deactivate SAC
end

SAC -> CS : fetchSupplierContracts()
activate CS
CS -> DB : getContractVersions()
activate DB
DB - -> CS : contracts{pricingTiers, volumeDiscounts, history}
deactivate DB
CS - -> SAC : contractData[]
deactivate CS

SAC - -> UI : supplierReport{accuracyScores, deliveryPerf, contracts}
deactivate SAC

UI - -> Manager : displaySupplierPerformanceReport(supplierReport)

Manager -> UI : selectPreferredSupplier(supplierId)
UI -> SAC : recordManagerDecision(supplierId, managerId)
activate SAC
SAC -> DB : persistDecision(supplierId, managerId, timestamp)
activate DB
DB - -> SAC : saved
deactivate DB
SAC - -> UI : decisionRecorded()
deactivate SAC
UI - -> Manager : confirmDecisionRecorded()

deactivate UI

@enduml

PlantUML version 1.2021.00(Sun Jan 10 12:25:05 EET 2021)
(MIT source distribution)
Java Runtime: Java(TM) SE Runtime Environment
JVM: Java HotSpot(TM) 64-Bit Server VM
Default Encoding: UTF-8
Language: en
Country: US
--></g></svg>