<?xml version="1.0" encoding="UTF-8" standalone="no"?><svg xmlns="http://www.w3.org/2000/svg" xmlns:xlink="http://www.w3.org/1999/xlink" contentScriptType="application/ecmascript" contentStyleType="text/css" height="1832px" preserveAspectRatio="none" style="width:1544px;height:1832px;" version="1.1" viewBox="0 0 1544 1832" width="1544px" zoomAndPan="magnify"><defs><filter height="300%" id="fovek10nd3abu" width="300%" x="-1" y="-1"><feGaussianBlur result="blurOut" stdDeviation="2.0"/><feColorMatrix in="blurOut" result="blurOut2" type="matrix" values="0 0 0 0 0 0 0 0 0 0 0 0 0 0 0 0 0 0 .4 0"/><feOffset dx="4.0" dy="4.0" in="blurOut2" result="blurOut3"/><feBlend in="SourceGraphic" in2="blurOut3" mode="normal"/></filter></defs><g><text fill="#000000" font-family="sans-serif" font-size="18" lengthAdjust="spacing" textLength="410" x="563.5" y="30.6855">UC-05 — Manage Procurement &amp; Purchase Orders</text><rect fill="#DDDDDD" height="1783.4453" style="stroke:#A80036;stroke-width:1.0;" width="147" x="16" y="42.6406"/><text fill="#000000" font-family="sans-serif" font-size="13" font-weight="bold" lengthAdjust="spacing" textLength="39" x="70" y="56.1357">Actors</text><rect fill="#DDDDDD" height="1783.4453" style="stroke:#A80036;stroke-width:1.0;" width="1269" x="252" y="42.6406"/><text fill="#000000" font-family="sans-serif" font-size="13" font-weight="bold" lengthAdjust="spacing" textLength="46" x="863.5" y="56.1357">System</text><rect fill="#FFFFFF" filter="url(#fovek10nd3abu)" height="30.3516" style="stroke:#A80036;stroke-width:1.0;" width="10" x="308.5" y="413.4141"/><rect fill="#FFFFFF" filter="url(#fovek10nd3abu)" height="1182.6563" style="stroke:#A80036;stroke-width:1.0;" width="10" x="308.5" y="481.1172"/><rect fill="#FFFFFF" filter="url(#fovek10nd3abu)" height="278.8125" style="stroke:#A80036;stroke-width:1.0;" width="10" x="561.5" y="179.9531"/><rect fill="#FFFFFF" filter="url(#fovek10nd3abu)" height="41.3516" style="stroke:#A80036;stroke-width:1.0;" width="10" x="566.5" y="248.6563"/><rect fill="#FFFFFF" filter="url(#fovek10nd3abu)" height="91.0547" style="stroke:#A80036;stroke-width:1.0;" width="10" x="561.5" y="511.4688"/><rect fill="#FFFFFF" filter="url(#fovek10nd3abu)" height="151.7578" style="stroke:#A80036;stroke-width:1.0;" width="10" x="561.5" y="1481.6641"/><rect fill="#FFFFFF" filter="url(#fovek10nd3abu)" height="177.7578" style="stroke:#A80036;stroke-width:1.0;" width="10" x="814.5" y="857.3359"/><rect fill="#FFFFFF" filter="url(#fovek10nd3abu)" height="41.3516" style="stroke:#A80036;stroke-width:1.0;" width="10" x="819.5" y="956.3906"/><rect fill="#FFFFFF" filter="url(#fovek10nd3abu)" height="325.1641" style="stroke:#A80036;stroke-width:1.0;" width="10" x="1073.5" y="1065.4453"/><rect fill="#FFFFFF" filter="url(#fovek10nd3abu)" height="41.3516" style="stroke:#A80036;stroke-width:1.0;" width="10" x="1078.5" y="1164.5"/><rect fill="#FFFFFF" filter="url(#fovek10nd3abu)" height="41.3516" style="stroke:#A80036;stroke-width:1.0;" width="10" x="1078.5" y="1251.2031"/><rect fill="#FFFFFF" filter="url(#fovek10nd3abu)" height="30.3516" style="stroke:#A80036;stroke-width:1.0;" width="10" x="1375.5" y="1512.0156"/><rect fill="#FFFFFF" filter="url(#fovek10nd3abu)" height="30.3516" style="stroke:#A80036;stroke-width:1.0;" width="10" x="1476.5" y="179.9531"/><rect fill="#FFFFFF" filter="url(#fovek10nd3abu)" height="30.3516" style="stroke:#A80036;stroke-width:1.0;" width="10" x="1476.5" y="352.7109"/><rect fill="#FFFFFF" filter="url(#fovek10nd3abu)" height="30.3516" style="stroke:#A80036;stroke-width:1.0;" width="10" x="1476.5" y="541.8203"/><rect fill="#FFFFFF" filter="url(#fovek10nd3abu)" height="30.3516" style="stroke:#A80036;stroke-width:1.0;" width="10" x="1476.5" y="887.6875"/><rect fill="#FFFFFF" filter="url(#fovek10nd3abu)" height="30.3516" style="stroke:#A80036;stroke-width:1.0;" width="10" x="1476.5" y="1095.7969"/><rect fill="#FFFFFF" filter="url(#fovek10nd3abu)" height="30.3516" style="stroke:#A80036;stroke-width:1.0;" width="10" x="1476.5" y="1329.9063"/><rect fill="#FFFFFF" filter="url(#fovek10nd3abu)" height="30.3516" style="stroke:#A80036;stroke-width:1.0;" width="10" x="1476.5" y="1572.7188"/><rect fill="#FFFFFF" filter="url(#fovek10nd3abu)" height="139.7578" style="stroke:#000000;stroke-width:2.0;" width="1517" x="10" y="312.0078"/><rect fill="#FFFFFF" filter="url(#fovek10nd3abu)" height="105.4063" style="stroke:#000000;stroke-width:2.0;" width="371" x="10" y="692.2266"/><line style="stroke:#A80036;stroke-width:1.0;stroke-dasharray:5.0,5.0;" x1="89" x2="89" y1="147.6016" y2="1738.4766"/><line style="stroke:#A80036;stroke-width:1.0;stroke-dasharray:5.0,5.0;" x1="313" x2="313" y1="147.6016" y2="1738.4766"/><line style="stroke:#A80036;stroke-width:1.0;stroke-dasharray:5.0,5.0;" x1="566" x2="566" y1="147.6016" y2="1738.4766"/><line style="stroke:#A80036;stroke-width:1.0;stroke-dasharray:5.0,5.0;" x1="819.5" x2="819.5" y1="147.6016" y2="1738.4766"/><line style="stroke:#A80036;stroke-width:1.0;stroke-dasharray:5.0,5.0;" x1="1078" x2="1078" y1="147.6016" y2="1738.4766"/><line style="stroke:#A80036;stroke-width:1.0;stroke-dasharray:5.0,5.0;" x1="1380" x2="1380" y1="147.6016" y2="1738.4766"/><line style="stroke:#A80036;stroke-width:1.0;stroke-dasharray:5.0,5.0;" x1="1481" x2="1481" y1="147.6016" y2="1738.4766"/><text fill="#000000" font-family="sans-serif" font-size="14" lengthAdjust="spacing" textLength="133" x="20" y="144.5254">:WarehouseManager</text><ellipse cx="89.5" cy="72.9922" fill="#FEFECE" filter="url(#fovek10nd3abu)" rx="8" ry="8" style="stroke:#A80036;stroke-width:2.0;"/><path d="M89.5,80.9922 L89.5,107.9922 M76.5,88.9922 L102.5,88.9922 M89.5,107.9922 L76.5,122.9922 M89.5,107.9922 L102.5,122.9922 " fill="none" filter="url(#fovek10nd3abu)" style="stroke:#A80036;stroke-width:2.0;"/><text fill="#000000" font-family="sans-serif" font-size="14" lengthAdjust="spacing" textLength="133" x="20" y="1752.0098">:WarehouseManager</text><ellipse cx="89.5" cy="1765.0859" fill="#FEFECE" filter="url(#fovek10nd3abu)" rx="8" ry="8" style="stroke:#A80036;stroke-width:2.0;"/><path d="M89.5,1773.0859 L89.5,1800.0859 M76.5,1781.0859 L102.5,1781.0859 M89.5,1800.0859 L76.5,1815.0859 M89.5,1800.0859 L102.5,1815.0859 " fill="none" filter="url(#fovek10nd3abu)" style="stroke:#A80036;stroke-width:2.0;"/><rect fill="#FEFECE" filter="url(#fovek10nd3abu)" height="31.6094" style="stroke:#A80036;stroke-width:1.5;" width="111" x="256" y="110.9922"/><text fill="#000000" font-family="sans-serif" font-size="14" lengthAdjust="spacing" textLength="97" x="263" y="132.5254">:ProcurementUI</text><rect fill="#FEFECE" filter="url(#fovek10nd3abu)" height="31.6094" style="stroke:#A80036;stroke-width:1.5;" width="111" x="256" y="1737.4766"/><text fill="#000000" font-family="sans-serif" font-size="14" lengthAdjust="spacing" textLength="97" x="263" y="1759.0098">:ProcurementUI</text><rect fill="#FEFECE" filter="url(#fovek10nd3abu)" height="31.6094" style="stroke:#A80036;stroke-width:1.5;" width="161" x="484" y="110.9922"/><text fill="#000000" font-family="sans-serif" font-size="14" lengthAdjust="spacing" textLength="147" x="491" y="132.5254">:ProcurementController</text><rect fill="#FEFECE" filter="url(#fovek10nd3abu)" height="31.6094" style="stroke:#A80036;stroke-width:1.5;" width="161" x="484" y="1737.4766"/><text fill="#000000" font-family="sans-serif" font-size="14" lengthAdjust="spacing" textLength="147" x="491" y="1759.0098">:ProcurementController</text><rect fill="#FEFECE" filter="url(#fovek10nd3abu)" height="31.6094" style="stroke:#A80036;stroke-width:1.5;" width="122" x="756.5" y="110.9922"/><text fill="#000000" font-family="sans-serif" font-size="14" lengthAdjust="spacing" textLength="108" x="763.5" y="132.5254">:SupplierSelector</text><rect fill="#FEFECE" filter="url(#fovek10nd3abu)" height="31.6094" style="stroke:#A80036;stroke-width:1.5;" width="122" x="756.5" y="1737.4766"/><text fill="#000000" font-family="sans-serif" font-size="14" lengthAdjust="spacing" textLength="108" x="763.5" y="1759.0098">:SupplierSelector</text><rect fill="#FEFECE" filter="url(#fovek10nd3abu)" height="31.6094" style="stroke:#A80036;stroke-width:1.5;" width="103" x="1025" y="110.9922"/><text fill="#000000" font-family="sans-serif" font-size="14" lengthAdjust="spacing" textLength="89" x="1032" y="132.5254">:POGenerator</text><rect fill="#FEFECE" filter="url(#fovek10nd3abu)" height="31.6094" style="stroke:#A80036;stroke-width:1.5;" width="103" x="1025" y="1737.4766"/><text fill="#000000" font-family="sans-serif" font-size="14" lengthAdjust="spacing" textLength="89" x="1032" y="1759.0098">:POGenerator</text><rect fill="#FEFECE" filter="url(#fovek10nd3abu)" height="31.6094" style="stroke:#A80036;stroke-width:1.5;" width="107" x="1325" y="110.9922"/><text fill="#000000" font-family="sans-serif" font-size="14" lengthAdjust="spacing" textLength="93" x="1332" y="132.5254">:SupplierPortal</text><rect fill="#FEFECE" filter="url(#fovek10nd3abu)" height="31.6094" style="stroke:#A80036;stroke-width:1.5;" width="107" x="1325" y="1737.4766"/><text fill="#000000" font-family="sans-serif" font-size="14" lengthAdjust="spacing" textLength="93" x="1332" y="1759.0098">:SupplierPortal</text><text fill="#000000" font-family="sans-serif" font-size="14" lengthAdjust="spacing" textLength="65" x="1446" y="144.5254">:Database</text><path d="M1463.5,93.9922 C1463.5,83.9922 1481.5,83.9922 1481.5,83.9922 C1481.5,83.9922 1499.5,83.9922 1499.5,93.9922 L1499.5,119.9922 C1499.5,129.9922 1481.5,129.9922 1481.5,129.9922 C1481.5,129.9922 1463.5,129.9922 1463.5,119.9922 L1463.5,93.9922 " fill="#FEFECE" filter="url(#fovek10nd3abu)" style="stroke:#000000;stroke-width:1.5;"/><path d="M1463.5,93.9922 C1463.5,103.9922 1481.5,103.9922 1481.5,103.9922 C1481.5,103.9922 1499.5,103.9922 1499.5,93.9922 " fill="none" style="stroke:#000000;stroke-width:1.5;"/><text fill="#000000" font-family="sans-serif" font-size="14" lengthAdjust="spacing" textLength="65" x="1446" y="1752.0098">:Database</text><path d="M1463.5,1765.0859 C1463.5,1755.0859 1481.5,1755.0859 1481.5,1755.0859 C1481.5,1755.0859 1499.5,1755.0859 1499.5,1765.0859 L1499.5,1791.0859 C1499.5,1801.0859 1481.5,1801.0859 1481.5,1801.0859 C1481.5,1801.0859 1463.5,1801.0859 1463.5,1791.0859 L1463.5,1765.0859 " fill="#FEFECE" filter="url(#fovek10nd3abu)" style="stroke:#000000;stroke-width:1.5;"/><path d="M1463.5,1765.0859 C1463.5,1775.0859 1481.5,1775.0859 1481.5,1775.0859 C1481.5,1775.0859 1499.5,1775.0859 1499.5,1765.0859 " fill="none" style="stroke:#000000;stroke-width:1.5;"/><rect fill="#FFFFFF" filter="url(#fovek10nd3abu)" height="30.3516" style="stroke:#A80036;stroke-width:1.0;" width="10" x="308.5" y="413.4141"/><rect fill="#FFFFFF" filter="url(#fovek10nd3abu)" height="1182.6563" style="stroke:#A80036;stroke-width:1.0;" width="10" x="308.5" y="481.1172"/><rect fill="#FFFFFF" filter="url(#fovek10nd3abu)" height="278.8125" style="stroke:#A80036;stroke-width:1.0;" width="10" x="561.5" y="179.9531"/><rect fill="#FFFFFF" filter="url(#fovek10nd3abu)" height="41.3516" style="stroke:#A80036;stroke-width:1.0;" width="10" x="566.5" y="248.6563"/><rect fill="#FFFFFF" filter="url(#fovek10nd3abu)" height="91.0547" style="stroke:#A80036;stroke-width:1.0;" width="10" x="561.5" y="511.4688"/><rect fill="#FFFFFF" filter="url(#fovek10nd3abu)" height="151.7578" style="stroke:#A80036;stroke-width:1.0;" width="10" x="561.5" y="1481.6641"/><rect fill="#FFFFFF" filter="url(#fovek10nd3abu)" height="177.7578" style="stroke:#A80036;stroke-width:1.0;" width="10" x="814.5" y="857.3359"/><rect fill="#FFFFFF" filter="url(#fovek10nd3abu)" height="41.3516" style="stroke:#A80036;stroke-width:1.0;" width="10" x="819.5" y="956.3906"/><rect fill="#FFFFFF" filter="url(#fovek10nd3abu)" height="325.1641" style="stroke:#A80036;stroke-width:1.0;" width="10" x="1073.5" y="1065.4453"/><rect fill="#FFFFFF" filter="url(#fovek10nd3abu)" height="41.3516" style="stroke:#A80036;stroke-width:1.0;" width="10" x="1078.5" y="1164.5"/><rect fill="#FFFFFF" filter="url(#fovek10nd3abu)" height="41.3516" style="stroke:#A80036;stroke-width:1.0;" width="10" x="1078.5" y="1251.2031"/><rect fill="#FFFFFF" filter="url(#fovek10nd3abu)" height="30.3516" style="stroke:#A80036;stroke-width:1.0;" width="10" x="1375.5" y="1512.0156"/><rect fill="#FFFFFF" filter="url(#fovek10nd3abu)" height="30.3516" style="stroke:#A80036;stroke-width:1.0;" width="10" x="1476.5" y="179.9531"/><rect fill="#FFFFFF" filter="url(#fovek10nd3abu)" height="30.3516" style="stroke:#A80036;stroke-width:1.0;" width="10" x="1476.5" y="352.7109"/><rect fill="#FFFFFF" filter="url(#fovek10nd3abu)" height="30.3516" style="stroke:#A80036;stroke-width:1.0;" width="10" x="1476.5" y="541.8203"/><rect fill="#FFFFFF" filter="url(#fovek10nd3abu)" height="30.3516" style="stroke:#A80036;stroke-width:1.0;" width="10" x="1476.5" y="887.6875"/><rect fill="#FFFFFF" filter="url(#fovek10nd3abu)" height="30.3516" style="stroke:#A80036;stroke-width:1.0;" width="10" x="1476.5" y="1095.7969"/><rect fill="#FFFFFF" filter="url(#fovek10nd3abu)" height="30.3516" style="stroke:#A80036;stroke-width:1.0;" width="10" x="1476.5" y="1329.9063"/><rect fill="#FFFFFF" filter="url(#fovek10nd3abu)" height="30.3516" style="stroke:#A80036;stroke-width:1.0;" width="10" x="1476.5" y="1572.7188"/><polygon fill="#A80036" points="1464.5,175.9531,1474.5,179.9531,1464.5,183.9531,1468.5,179.9531" style="stroke:#A80036;stroke-width:1.0;"/><line style="stroke:#A80036;stroke-width:1.0;" x1="571.5" x2="1470.5" y1="179.9531" y2="179.9531"/><text fill="#000000" font-family="sans-serif" font-size="13" lengthAdjust="spacing" textLength="121" x="578.5" y="175.0967">monitorStockLevels()</text><polygon fill="#A80036" points="582.5,206.3047,572.5,210.3047,582.5,214.3047,578.5,210.3047" style="stroke:#A80036;stroke-width:1.0;"/><line style="stroke:#A80036;stroke-width:1.0;stroke-dasharray:2.0,2.0;" x1="576.5" x2="1480.5" y1="210.3047" y2="210.3047"/><text fill="#000000" font-family="sans-serif" font-size="13" lengthAdjust="spacing" textLength="67" x="588.5" y="205.4482">stockData[]</text><line style="stroke:#A80036;stroke-width:1.0;" x1="571.5" x2="618.5" y1="235.6563" y2="235.6563"/><line style="stroke:#A80036;stroke-width:1.0;" x1="618.5" x2="618.5" y1="235.6563" y2="248.6563"/><line style="stroke:#A80036;stroke-width:1.0;" x1="577.5" x2="618.5" y1="248.6563" y2="248.6563"/><polygon fill="#A80036" points="587.5,244.6563,577.5,248.6563,587.5,252.6563,583.5,248.6563" style="stroke:#A80036;stroke-width:1.0;"/><text fill="#000000" font-family="sans-serif" font-size="13" lengthAdjust="spacing" textLength="229" x="583.5" y="230.7998">checkSafetyStockThreshold(stockData)</text><line style="stroke:#A80036;stroke-width:1.0;stroke-dasharray:2.0,2.0;" x1="576.5" x2="618.5" y1="289.0078" y2="289.0078"/><line style="stroke:#A80036;stroke-width:1.0;stroke-dasharray:2.0,2.0;" x1="618.5" x2="618.5" y1="289.0078" y2="302.0078"/><line style="stroke:#A80036;stroke-width:1.0;stroke-dasharray:2.0,2.0;" x1="571.5" x2="618.5" y1="302.0078" y2="302.0078"/><polygon fill="#A80036" points="581.5,298.0078,571.5,302.0078,581.5,306.0078,577.5,302.0078" style="stroke:#A80036;stroke-width:1.0;"/><text fill="#000000" font-family="sans-serif" font-size="13" lengthAdjust="spacing" textLength="108" x="583.5" y="284.1514">thresholdBreached</text><path d="M10,312.0078 L75,312.0078 L75,320.0078 L65,330.0078 L10,330.0078 L10,312.0078 " fill="#EEEEEE" style="stroke:#000000;stroke-width:1.0;"/><rect fill="none" height="139.7578" style="stroke:#000000;stroke-width:2.0;" width="1517" x="10" y="312.0078"/><text fill="#000000" font-family="sans-serif" font-size="13" font-weight="bold" lengthAdjust="spacing" textLength="20" x="25" y="326.5029">opt</text><text fill="#000000" font-family="sans-serif" font-size="11" font-weight="bold" lengthAdjust="spacing" textLength="148" x="90" y="325.4268">[stock &lt;= safetyThreshold]</text><polygon fill="#A80036" points="1464.5,348.7109,1474.5,352.7109,1464.5,356.7109,1468.5,352.7109" style="stroke:#A80036;stroke-width:1.0;"/><line style="stroke:#A80036;stroke-width:1.0;" x1="571.5" x2="1470.5" y1="352.7109" y2="352.7109"/><text fill="#000000" font-family="sans-serif" font-size="13" lengthAdjust="spacing" textLength="117" x="578.5" y="347.8545">fetchAffectedSKUs()</text><polygon fill="#A80036" points="582.5,379.0625,572.5,383.0625,582.5,387.0625,578.5,383.0625" style="stroke:#A80036;stroke-width:1.0;"/><line style="stroke:#A80036;stroke-width:1.0;stroke-dasharray:2.0,2.0;" x1="576.5" x2="1480.5" y1="383.0625" y2="383.0625"/><text fill="#000000" font-family="sans-serif" font-size="13" lengthAdjust="spacing" textLength="87" x="588.5" y="378.2061">affectedSKUs[]</text><polygon fill="#A80036" points="329.5,409.4141,319.5,413.4141,329.5,417.4141,325.5,413.4141" style="stroke:#A80036;stroke-width:1.0;"/><line style="stroke:#A80036;stroke-width:1.0;stroke-dasharray:2.0,2.0;" x1="323.5" x2="560.5" y1="413.4141" y2="413.4141"/><text fill="#000000" font-family="sans-serif" font-size="13" lengthAdjust="spacing" textLength="224" x="335.5" y="408.5576">pushReorderNotification(affectedSKUs)</text><polygon fill="#A80036" points="100.5,439.7656,90.5,443.7656,100.5,447.7656,96.5,443.7656" style="stroke:#A80036;stroke-width:1.0;"/><line style="stroke:#A80036;stroke-width:1.0;stroke-dasharray:2.0,2.0;" x1="94.5" x2="312.5" y1="443.7656" y2="443.7656"/><text fill="#000000" font-family="sans-serif" font-size="13" lengthAdjust="spacing" textLength="189" x="106.5" y="438.9092">showReorderAlert(affectedSKUs)</text><polygon fill="#A80036" points="296.5,477.1172,306.5,481.1172,296.5,485.1172,300.5,481.1172" style="stroke:#A80036;stroke-width:1.0;"/><line style="stroke:#A80036;stroke-width:1.0;" x1="89.5" x2="302.5" y1="481.1172" y2="481.1172"/><text fill="#000000" font-family="sans-serif" font-size="13" lengthAdjust="spacing" textLength="189" x="96.5" y="476.2607">reviewReorderRecommendation()</text><polygon fill="#A80036" points="549.5,507.4688,559.5,511.4688,549.5,515.4688,553.5,511.4688" style="stroke:#A80036;stroke-width:1.0;"/><line style="stroke:#A80036;stroke-width:1.0;" x1="318.5" x2="555.5" y1="511.4688" y2="511.4688"/><text fill="#000000" font-family="sans-serif" font-size="13" lengthAdjust="spacing" textLength="215" x="325.5" y="506.6123">requestReorderDetails(affectedSKUs)</text><polygon fill="#A80036" points="1464.5,537.8203,1474.5,541.8203,1464.5,545.8203,1468.5,541.8203" style="stroke:#A80036;stroke-width:1.0;"/><line style="stroke:#A80036;stroke-width:1.0;" x1="571.5" x2="1470.5" y1="541.8203" y2="541.8203"/><text fill="#000000" font-family="sans-serif" font-size="13" lengthAdjust="spacing" textLength="182" x="578.5" y="536.9639">fetchSKUDetails(affectedSKUs)</text><polygon fill="#A80036" points="582.5,568.1719,572.5,572.1719,582.5,576.1719,578.5,572.1719" style="stroke:#A80036;stroke-width:1.0;"/><line style="stroke:#A80036;stroke-width:1.0;stroke-dasharray:2.0,2.0;" x1="576.5" x2="1480.5" y1="572.1719" y2="572.1719"/><text fill="#000000" font-family="sans-serif" font-size="13" lengthAdjust="spacing" textLength="69" x="588.5" y="567.3154">skuDetails[]</text><polygon fill="#A80036" points="329.5,598.5234,319.5,602.5234,329.5,606.5234,325.5,602.5234" style="stroke:#A80036;stroke-width:1.0;"/><line style="stroke:#A80036;stroke-width:1.0;stroke-dasharray:2.0,2.0;" x1="323.5" x2="565.5" y1="602.5234" y2="602.5234"/><text fill="#000000" font-family="sans-serif" font-size="13" lengthAdjust="spacing" textLength="149" x="335.5" y="597.667">reorderDetails(skuDetails)</text><polygon fill="#A80036" points="100.5,628.875,90.5,632.875,100.5,636.875,96.5,632.875" style="stroke:#A80036;stroke-width:1.0;"/><line style="stroke:#A80036;stroke-width:1.0;stroke-dasharray:2.0,2.0;" x1="94.5" x2="307.5" y1="632.875" y2="632.875"/><text fill="#000000" font-family="sans-serif" font-size="13" lengthAdjust="spacing" textLength="195" x="106.5" y="628.0186">displayReorderDetails(skuDetails)</text><rect fill="#EEEEEE" filter="url(#fovek10nd3abu)" height="3" style="stroke:#EEEEEE;stroke-width:1.0;" width="1537" x="0" y="662.0508"/><line style="stroke:#000000;stroke-width:1.0;" x1="0" x2="1537" y1="662.0508" y2="662.0508"/><line style="stroke:#000000;stroke-width:1.0;" x1="0" x2="1537" y1="665.0508" y2="665.0508"/><rect fill="#EEEEEE" filter="url(#fovek10nd3abu)" height="24.3516" style="stroke:#000000;stroke-width:2.0;" width="233.4063" x="651.7969" y="650.875"/><text fill="#000000" font-family="sans-serif" font-size="13" font-weight="bold" lengthAdjust="spacing" textLength="215.4063" x="657.7969" y="668.3701">opt: Extension Point — Evaluation</text><path d="M10,692.2266 L75,692.2266 L75,700.2266 L65,710.2266 L10,710.2266 L10,692.2266 " fill="#EEEEEE" style="stroke:#000000;stroke-width:1.0;"/><rect fill="none" height="105.4063" style="stroke:#000000;stroke-width:2.0;" width="371" x="10" y="692.2266"/><text fill="#000000" font-family="sans-serif" font-size="13" font-weight="bold" lengthAdjust="spacing" textLength="20" x="25" y="706.7217">opt</text><text fill="#000000" font-family="sans-serif" font-size="11" font-weight="bold" lengthAdjust="spacing" textLength="230" x="90" y="705.6455">[manager selects 'evaluate before order']</text><path d="M94,715.5781 L94,757.5781 L350,757.5781 L350,725.5781 L340,715.5781 L94,715.5781 " fill="#FBFB77" filter="url(#fovek10nd3abu)" style="stroke:#A80036;stroke-width:1.0;"/><path d="M340,715.5781 L340,725.5781 L350,725.5781 L340,715.5781 " fill="#FBFB77" style="stroke:#A80036;stroke-width:1.0;"/><text fill="#000000" font-family="sans-serif" font-size="13" lengthAdjust="spacing" textLength="86" x="100" y="734.0732">Triggers UC-04</text><text fill="#000000" font-family="sans-serif" font-size="13" lengthAdjust="spacing" textLength="235" x="100" y="750.4248">(View Supplier Performance &amp; Analytics)</text><polygon fill="#A80036" points="296.5,785.6328,306.5,789.6328,296.5,793.6328,300.5,789.6328" style="stroke:#A80036;stroke-width:1.0;"/><line style="stroke:#A80036;stroke-width:1.0;" x1="89.5" x2="302.5" y1="789.6328" y2="789.6328"/><text fill="#000000" font-family="sans-serif" font-size="13" lengthAdjust="spacing" textLength="161" x="96.5" y="784.7764">selectEvaluateBeforeOrder()</text><polygon fill="#A80036" points="296.5,822.9844,306.5,826.9844,296.5,830.9844,300.5,826.9844" style="stroke:#A80036;stroke-width:1.0;"/><line style="stroke:#A80036;stroke-width:1.0;" x1="89.5" x2="302.5" y1="826.9844" y2="826.9844"/><text fill="#000000" font-family="sans-serif" font-size="13" lengthAdjust="spacing" textLength="155" x="96.5" y="822.1279">proceedWithOrder(skuList)</text><polygon fill="#A80036" points="802.5,853.3359,812.5,857.3359,802.5,861.3359,806.5,857.3359" style="stroke:#A80036;stroke-width:1.0;"/><line style="stroke:#A80036;stroke-width:1.0;" x1="318.5" x2="808.5" y1="857.3359" y2="857.3359"/><text fill="#000000" font-family="sans-serif" font-size="13" lengthAdjust="spacing" textLength="204" x="325.5" y="852.4795">runTieredSupplierSelection(skuList)</text><polygon fill="#A80036" points="1464.5,883.6875,1474.5,887.6875,1464.5,891.6875,1468.5,887.6875" style="stroke:#A80036;stroke-width:1.0;"/><line style="stroke:#A80036;stroke-width:1.0;" x1="824.5" x2="1470.5" y1="887.6875" y2="887.6875"/><text fill="#000000" font-family="sans-serif" font-size="13" lengthAdjust="spacing" textLength="170" x="831.5" y="882.8311">fetchSupplierOptions(skuList)</text><polygon fill="#A80036" points="835.5,914.0391,825.5,918.0391,835.5,922.0391,831.5,918.0391" style="stroke:#A80036;stroke-width:1.0;"/><line style="stroke:#A80036;stroke-width:1.0;stroke-dasharray:2.0,2.0;" x1="829.5" x2="1480.5" y1="918.0391" y2="918.0391"/><text fill="#000000" font-family="sans-serif" font-size="13" lengthAdjust="spacing" textLength="176" x="841.5" y="913.1826">suppliers{price, deliverySpeed}</text><line style="stroke:#A80036;stroke-width:1.0;" x1="824.5" x2="871.5" y1="943.3906" y2="943.3906"/><line style="stroke:#A80036;stroke-width:1.0;" x1="871.5" x2="871.5" y1="943.3906" y2="956.3906"/><line style="stroke:#A80036;stroke-width:1.0;" x1="830.5" x2="871.5" y1="956.3906" y2="956.3906"/><polygon fill="#A80036" points="840.5,952.3906,830.5,956.3906,840.5,960.3906,836.5,956.3906" style="stroke:#A80036;stroke-width:1.0;"/><text fill="#000000" font-family="sans-serif" font-size="13" lengthAdjust="spacing" textLength="235" x="836.5" y="938.5342">applySelectionRule(price, deliverySpeed)</text><line style="stroke:#A80036;stroke-width:1.0;stroke-dasharray:2.0,2.0;" x1="829.5" x2="871.5" y1="996.7422" y2="996.7422"/><line style="stroke:#A80036;stroke-width:1.0;stroke-dasharray:2.0,2.0;" x1="871.5" x2="871.5" y1="996.7422" y2="1009.7422"/><line style="stroke:#A80036;stroke-width:1.0;stroke-dasharray:2.0,2.0;" x1="824.5" x2="871.5" y1="1009.7422" y2="1009.7422"/><polygon fill="#A80036" points="834.5,1005.7422,824.5,1009.7422,834.5,1013.7422,830.5,1009.7422" style="stroke:#A80036;stroke-width:1.0;"/><text fill="#000000" font-family="sans-serif" font-size="13" lengthAdjust="spacing" textLength="96" x="836.5" y="991.8857">selectedSupplier</text><polygon fill="#A80036" points="329.5,1031.0938,319.5,1035.0938,329.5,1039.0938,325.5,1035.0938" style="stroke:#A80036;stroke-width:1.0;"/><line style="stroke:#A80036;stroke-width:1.0;stroke-dasharray:2.0,2.0;" x1="323.5" x2="818.5" y1="1035.0938" y2="1035.0938"/><text fill="#000000" font-family="sans-serif" font-size="13" lengthAdjust="spacing" textLength="209" x="335.5" y="1030.2373">selectedSupplier{supplierId, skuList}</text><polygon fill="#A80036" points="1061.5,1061.4453,1071.5,1065.4453,1061.5,1069.4453,1065.5,1065.4453" style="stroke:#A80036;stroke-width:1.0;"/><line style="stroke:#A80036;stroke-width:1.0;" x1="318.5" x2="1067.5" y1="1065.4453" y2="1065.4453"/><text fill="#000000" font-family="sans-serif" font-size="13" lengthAdjust="spacing" textLength="291" x="325.5" y="1060.5889">generatePurchaseOrder(selectedSupplier, skuList)</text><polygon fill="#A80036" points="1464.5,1091.7969,1474.5,1095.7969,1464.5,1099.7969,1468.5,1095.7969" style="stroke:#A80036;stroke-width:1.0;"/><line style="stroke:#A80036;stroke-width:1.0;" x1="1083.5" x2="1470.5" y1="1095.7969" y2="1095.7969"/><text fill="#000000" font-family="sans-serif" font-size="13" lengthAdjust="spacing" textLength="201" x="1090.5" y="1090.9404">fetchUnitPrices(skuList, supplierId)</text><polygon fill="#A80036" points="1094.5,1122.1484,1084.5,1126.1484,1094.5,1130.1484,1090.5,1126.1484" style="stroke:#A80036;stroke-width:1.0;"/><line style="stroke:#A80036;stroke-width:1.0;stroke-dasharray:2.0,2.0;" x1="1088.5" x2="1480.5" y1="1126.1484" y2="1126.1484"/><text fill="#000000" font-family="sans-serif" font-size="13" lengthAdjust="spacing" textLength="43" x="1100.5" y="1121.292">prices[]</text><line style="stroke:#A80036;stroke-width:1.0;" x1="1083.5" x2="1130.5" y1="1151.5" y2="1151.5"/><line style="stroke:#A80036;stroke-width:1.0;" x1="1130.5" x2="1130.5" y1="1151.5" y2="1164.5"/><line style="stroke:#A80036;stroke-width:1.0;" x1="1089.5" x2="1130.5" y1="1164.5" y2="1164.5"/><polygon fill="#A80036" points="1099.5,1160.5,1089.5,1164.5,1099.5,1168.5,1095.5,1164.5" style="stroke:#A80036;stroke-width:1.0;"/><text fill="#000000" font-family="sans-serif" font-size="13" lengthAdjust="spacing" textLength="278" x="1095.5" y="1146.6436">buildPO(SKUs, quantities, unitPrices, totalCost)</text><line style="stroke:#A80036;stroke-width:1.0;stroke-dasharray:2.0,2.0;" x1="1088.5" x2="1130.5" y1="1204.8516" y2="1204.8516"/><line style="stroke:#A80036;stroke-width:1.0;stroke-dasharray:2.0,2.0;" x1="1130.5" x2="1130.5" y1="1204.8516" y2="1217.8516"/><line style="stroke:#A80036;stroke-width:1.0;stroke-dasharray:2.0,2.0;" x1="1083.5" x2="1130.5" y1="1217.8516" y2="1217.8516"/><polygon fill="#A80036" points="1093.5,1213.8516,1083.5,1217.8516,1093.5,1221.8516,1089.5,1217.8516" style="stroke:#A80036;stroke-width:1.0;"/><text fill="#000000" font-family="sans-serif" font-size="13" lengthAdjust="spacing" textLength="41" x="1095.5" y="1199.9951">poData</text><line style="stroke:#A80036;stroke-width:1.0;" x1="1083.5" x2="1130.5" y1="1238.2031" y2="1238.2031"/><line style="stroke:#A80036;stroke-width:1.0;" x1="1130.5" x2="1130.5" y1="1238.2031" y2="1251.2031"/><line style="stroke:#A80036;stroke-width:1.0;" x1="1089.5" x2="1130.5" y1="1251.2031" y2="1251.2031"/><polygon fill="#A80036" points="1099.5,1247.2031,1089.5,1251.2031,1099.5,1255.2031,1095.5,1251.2031" style="stroke:#A80036;stroke-width:1.0;"/><text fill="#000000" font-family="sans-serif" font-size="13" lengthAdjust="spacing" textLength="130" x="1095.5" y="1233.3467">applyDigitalSignature()</text><line style="stroke:#A80036;stroke-width:1.0;stroke-dasharray:2.0,2.0;" x1="1088.5" x2="1130.5" y1="1291.5547" y2="1291.5547"/><line style="stroke:#A80036;stroke-width:1.0;stroke-dasharray:2.0,2.0;" x1="1130.5" x2="1130.5" y1="1291.5547" y2="1304.5547"/><line style="stroke:#A80036;stroke-width:1.0;stroke-dasharray:2.0,2.0;" x1="1083.5" x2="1130.5" y1="1304.5547" y2="1304.5547"/><polygon fill="#A80036" points="1093.5,1300.5547,1083.5,1304.5547,1093.5,1308.5547,1089.5,1304.5547" style="stroke:#A80036;stroke-width:1.0;"/><text fill="#000000" font-family="sans-serif" font-size="13" lengthAdjust="spacing" textLength="57" x="1095.5" y="1286.6982">signedPO</text><polygon fill="#A80036" points="1464.5,1325.9063,1474.5,1329.9063,1464.5,1333.9063,1468.5,1329.9063" style="stroke:#A80036;stroke-width:1.0;"/><line style="stroke:#A80036;stroke-width:1.0;" x1="1083.5" x2="1470.5" y1="1329.9063" y2="1329.9063"/><text fill="#000000" font-family="sans-serif" font-size="13" lengthAdjust="spacing" textLength="107" x="1090.5" y="1325.0498">persistPO(poData)</text><polygon fill="#A80036" points="1094.5,1356.2578,1084.5,1360.2578,1094.5,1364.2578,1090.5,1360.2578" style="stroke:#A80036;stroke-width:1.0;"/><line style="stroke:#A80036;stroke-width:1.0;stroke-dasharray:2.0,2.0;" x1="1088.5" x2="1480.5" y1="1360.2578" y2="1360.2578"/><text fill="#000000" font-family="sans-serif" font-size="13" lengthAdjust="spacing" textLength="24" x="1100.5" y="1355.4014">poId</text><polygon fill="#A80036" points="329.5,1386.6094,319.5,1390.6094,329.5,1394.6094,325.5,1390.6094" style="stroke:#A80036;stroke-width:1.0;"/><line style="stroke:#A80036;stroke-width:1.0;stroke-dasharray:2.0,2.0;" x1="323.5" x2="1077.5" y1="1390.6094" y2="1390.6094"/><text fill="#000000" font-family="sans-serif" font-size="13" lengthAdjust="spacing" textLength="220" x="335.5" y="1385.7529">purchaseOrderReady(poId, poPreview)</text><polygon fill="#A80036" points="100.5,1416.9609,90.5,1420.9609,100.5,1424.9609,96.5,1420.9609" style="stroke:#A80036;stroke-width:1.0;"/><line style="stroke:#A80036;stroke-width:1.0;stroke-dasharray:2.0,2.0;" x1="94.5" x2="307.5" y1="1420.9609" y2="1420.9609"/><text fill="#000000" font-family="sans-serif" font-size="13" lengthAdjust="spacing" textLength="194" x="106.5" y="1416.1045">displayPOForApproval(poPreview)</text><polygon fill="#A80036" points="296.5,1447.3125,306.5,1451.3125,296.5,1455.3125,300.5,1451.3125" style="stroke:#A80036;stroke-width:1.0;"/><line style="stroke:#A80036;stroke-width:1.0;" x1="89.5" x2="302.5" y1="1451.3125" y2="1451.3125"/><text fill="#000000" font-family="sans-serif" font-size="13" lengthAdjust="spacing" textLength="95" x="96.5" y="1446.4561">approvePO(poId)</text><polygon fill="#A80036" points="549.5,1477.6641,559.5,1481.6641,549.5,1485.6641,553.5,1481.6641" style="stroke:#A80036;stroke-width:1.0;"/><line style="stroke:#A80036;stroke-width:1.0;" x1="318.5" x2="555.5" y1="1481.6641" y2="1481.6641"/><text fill="#000000" font-family="sans-serif" font-size="13" lengthAdjust="spacing" textLength="140" x="325.5" y="1476.8076">sendPOToSupplier(poId)</text><polygon fill="#A80036" points="1363.5,1508.0156,1373.5,1512.0156,1363.5,1516.0156,1367.5,1512.0156" style="stroke:#A80036;stroke-width:1.0;"/><line style="stroke:#A80036;stroke-width:1.0;" x1="571.5" x2="1369.5" y1="1512.0156" y2="1512.0156"/><text fill="#000000" font-family="sans-serif" font-size="13" lengthAdjust="spacing" textLength="104" x="578.5" y="1507.1592">deliverPO(poData)</text><polygon fill="#A80036" points="582.5,1538.3672,572.5,1542.3672,582.5,1546.3672,578.5,1542.3672" style="stroke:#A80036;stroke-width:1.0;"/><line style="stroke:#A80036;stroke-width:1.0;stroke-dasharray:2.0,2.0;" x1="576.5" x2="1379.5" y1="1542.3672" y2="1542.3672"/><text fill="#000000" font-family="sans-serif" font-size="13" lengthAdjust="spacing" textLength="74" x="588.5" y="1537.5107">poReceived()</text><polygon fill="#A80036" points="1464.5,1568.7188,1474.5,1572.7188,1464.5,1576.7188,1468.5,1572.7188" style="stroke:#A80036;stroke-width:1.0;"/><line style="stroke:#A80036;stroke-width:1.0;" x1="571.5" x2="1470.5" y1="1572.7188" y2="1572.7188"/><text fill="#000000" font-family="sans-serif" font-size="13" lengthAdjust="spacing" textLength="164" x="578.5" y="1567.8623">logPOSent(poId, timestamp)</text><polygon fill="#A80036" points="582.5,1599.0703,572.5,1603.0703,582.5,1607.0703,578.5,1603.0703" style="stroke:#A80036;stroke-width:1.0;"/><line style="stroke:#A80036;stroke-width:1.0;stroke-dasharray:2.0,2.0;" x1="576.5" x2="1480.5" y1="1603.0703" y2="1603.0703"/><text fill="#000000" font-family="sans-serif" font-size="13" lengthAdjust="spacing" textLength="38" x="588.5" y="1598.2139">logged</text><polygon fill="#A80036" points="329.5,1629.4219,319.5,1633.4219,329.5,1637.4219,325.5,1633.4219" style="stroke:#A80036;stroke-width:1.0;"/><line style="stroke:#A80036;stroke-width:1.0;stroke-dasharray:2.0,2.0;" x1="323.5" x2="565.5" y1="1633.4219" y2="1633.4219"/><text fill="#000000" font-family="sans-serif" font-size="13" lengthAdjust="spacing" textLength="49" x="335.5" y="1628.5654">poSent()</text><polygon fill="#A80036" points="100.5,1659.7734,90.5,1663.7734,100.5,1667.7734,96.5,1663.7734" style="stroke:#A80036;stroke-width:1.0;"/><line style="stroke:#A80036;stroke-width:1.0;stroke-dasharray:2.0,2.0;" x1="94.5" x2="312.5" y1="1663.7734" y2="1663.7734"/><text fill="#000000" font-family="sans-serif" font-size="13" lengthAdjust="spacing" textLength="157" x="106.5" y="1658.917">confirmPOSentToSupplier()</text><path d="M449,1676.7734 L449,1718.7734 L679,1718.7734 L679,1686.7734 L669,1676.7734 L449,1676.7734 " fill="#FBFB77" filter="url(#fovek10nd3abu)" style="stroke:#A80036;stroke-width:1.0;"/><path d="M669,1676.7734 L669,1686.7734 L679,1686.7734 L669,1676.7734 " fill="#FBFB77" style="stroke:#A80036;stroke-width:1.0;"/><text fill="#000000" font-family="sans-serif" font-size="13" lengthAdjust="spacing" textLength="88" x="455" y="1695.2686">Includes UC-16</text><text fill="#000000" font-family="sans-serif" font-size="13" lengthAdjust="spacing" textLength="209" x="455" y="1711.6201">(Receive &amp; Confirm Purchase Order)</text><!--MD5=[ecf6242d1c3026d627d2ca17c0e3d822]
@startuml UC-05_Manage_Procurement_Purchase_Orders
title UC-05 — Manage Procurement & Purchase Orders

box "Actors"
actor ":WarehouseManager" as Manager
end box

box "System"
participant ":ProcurementUI" as UI
participant ":ProcurementController" as PC
participant ":SupplierSelector" as SS
participant ":POGenerator" as POG
participant ":SupplierPortal" as SP
database ":Database" as DB
end box

PC -> DB : monitorStockLevels()
activate PC
activate DB
DB - -> PC : stockData[]
deactivate DB

PC -> PC : checkSafetyStockThreshold(stockData)
activate PC
PC - -> PC : thresholdBreached
deactivate PC

opt stock <= safetyThreshold
    PC -> DB : fetchAffectedSKUs()
    activate DB
    DB - -> PC : affectedSKUs[]
    deactivate DB
    PC - -> UI : pushReorderNotification(affectedSKUs)
    activate UI
    UI - -> Manager : showReorderAlert(affectedSKUs)
    deactivate UI
end

deactivate PC

Manager -> UI : reviewReorderRecommendation()
activate UI
UI -> PC : requestReorderDetails(affectedSKUs)
activate PC
PC -> DB : fetchSKUDetails(affectedSKUs)
activate DB
DB - -> PC : skuDetails[]
deactivate DB
PC - -> UI : reorderDetails(skuDetails)
deactivate PC
UI - -> Manager : displayReorderDetails(skuDetails)

== opt: Extension Point — Evaluation ==

opt manager selects 'evaluate before order'
    note right of Manager : Triggers UC-04\n(View Supplier Performance & Analytics)
    Manager -> UI : selectEvaluateBeforeOrder()
end

Manager -> UI : proceedWithOrder(skuList)

UI -> SS : runTieredSupplierSelection(skuList)
activate SS
SS -> DB : fetchSupplierOptions(skuList)
activate DB
DB - -> SS : suppliers{price, deliverySpeed}
deactivate DB
SS -> SS : applySelectionRule(price, deliverySpeed)
activate SS
SS - -> SS : selectedSupplier
deactivate SS
SS - -> UI : selectedSupplier{supplierId, skuList}
deactivate SS

UI -> POG : generatePurchaseOrder(selectedSupplier, skuList)
activate POG
POG -> DB : fetchUnitPrices(skuList, supplierId)
activate DB
DB - -> POG : prices[]
deactivate DB
POG -> POG : buildPO(SKUs, quantities, unitPrices, totalCost)
activate POG
POG - -> POG : poData
deactivate POG
POG -> POG : applyDigitalSignature()
activate POG
POG - -> POG : signedPO
deactivate POG
POG -> DB : persistPO(poData)
activate DB
DB - -> POG : poId
deactivate DB
POG - -> UI : purchaseOrderReady(poId, poPreview)
deactivate POG

UI - -> Manager : displayPOForApproval(poPreview)

Manager -> UI : approvePO(poId)
UI -> PC : sendPOToSupplier(poId)
activate PC
PC -> SP : deliverPO(poData)
activate SP
SP - -> PC : poReceived()
deactivate SP
PC -> DB : logPOSent(poId, timestamp)
activate DB
DB - -> PC : logged
deactivate DB
PC - -> UI : poSent()
deactivate PC
UI - -> Manager : confirmPOSentToSupplier()

note over PC : Includes UC-16\n(Receive & Confirm Purchase Order)

deactivate UI

@enduml

PlantUML version 1.2021.00(Sun Jan 10 12:25:05 EET 2021)
(MIT source distribution)
Java Runtime: Java(TM) SE Runtime Environment
JVM: Java HotSpot(TM) 64-Bit Server VM
Default Encoding: UTF-8
Language: en
Country: US
--></g></svg>