<?xml version="1.0" encoding="UTF-8" standalone="no"?><svg xmlns="http://www.w3.org/2000/svg" xmlns:xlink="http://www.w3.org/1999/xlink" contentScriptType="application/ecmascript" contentStyleType="text/css" height="1354px" preserveAspectRatio="none" style="width:1798px;height:1354px;" version="1.1" viewBox="0 0 1798 1354" width="1798px" zoomAndPan="magnify"><defs><filter height="300%" id="fsoyjp5ulu822" width="300%" x="-1" y="-1"><feGaussianBlur result="blurOut" stdDeviation="2.0"/><feColorMatrix in="blurOut" result="blurOut2" type="matrix" values="0 0 0 0 0 0 0 0 0 0 0 0 0 0 0 0 0 0 .4 0"/><feOffset dx="4.0" dy="4.0" in="blurOut2" result="blurOut3"/><feBlend in="SourceGraphic" in2="blurOut3" mode="normal"/></filter></defs><g><text fill="#000000" font-family="sans-serif" font-size="18" lengthAdjust="spacing" textLength="325" x="733" y="30.6855">UC-17 — Update Shipment &amp; Lead Time</text><rect fill="#DDDDDD" height="1306.1719" style="stroke:#A80036;stroke-width:1.0;" width="70" x="1" y="42.6406"/><text fill="#000000" font-family="sans-serif" font-size="13" font-weight="bold" lengthAdjust="spacing" textLength="39" x="16.5" y="56.1357">Actors</text><rect fill="#DDDDDD" height="1306.1719" style="stroke:#A80036;stroke-width:1.0;" width="1476.5" x="291.5" y="42.6406"/><text fill="#000000" font-family="sans-serif" font-size="13" font-weight="bold" lengthAdjust="spacing" textLength="46" x="1006.75" y="56.1357">System</text><rect fill="#FFFFFF" filter="url(#fsoyjp5ulu822)" height="1022.8984" style="stroke:#A80036;stroke-width:1.0;" width="10" x="346" y="179.9531"/><rect fill="#FFFFFF" filter="url(#fsoyjp5ulu822)" height="992.5469" style="stroke:#A80036;stroke-width:1.0;" width="10" x="681" y="210.3047"/><rect fill="#FFFFFF" filter="url(#fsoyjp5ulu822)" height="177.7578" style="stroke:#A80036;stroke-width:1.0;" width="10" x="942" y="422.7656"/><rect fill="#FFFFFF" filter="url(#fsoyjp5ulu822)" height="41.3516" style="stroke:#A80036;stroke-width:1.0;" width="10" x="947" y="521.8203"/><rect fill="#FFFFFF" filter="url(#fsoyjp5ulu822)" height="91.0547" style="stroke:#A80036;stroke-width:1.0;" width="10" x="1286" y="630.875"/><rect fill="#FFFFFF" filter="url(#fsoyjp5ulu822)" height="30" style="stroke:#A80036;stroke-width:1.0;" width="10" x="1603.5" y="1172.8516"/><rect fill="#FFFFFF" filter="url(#fsoyjp5ulu822)" height="30.3516" style="stroke:#A80036;stroke-width:1.0;" width="10" x="1723.5" y="240.6563"/><rect fill="#FFFFFF" filter="url(#fsoyjp5ulu822)" height="30.3516" style="stroke:#A80036;stroke-width:1.0;" width="10" x="1723.5" y="453.1172"/><rect fill="#FFFFFF" filter="url(#fsoyjp5ulu822)" height="30.3516" style="stroke:#A80036;stroke-width:1.0;" width="10" x="1723.5" y="661.2266"/><rect fill="#FFFFFF" filter="url(#fsoyjp5ulu822)" height="30.3516" style="stroke:#A80036;stroke-width:1.0;" width="10" x="1723.5" y="782.6328"/><rect fill="#FFFFFF" filter="url(#fsoyjp5ulu822)" height="30.3516" style="stroke:#A80036;stroke-width:1.0;" width="10" x="1723.5" y="973.7422"/><rect fill="#FFFFFF" filter="url(#fsoyjp5ulu822)" height="166.1094" style="stroke:#000000;stroke-width:2.0;" width="1488.5" x="285.5" y="933.0391"/><line style="stroke:#A80036;stroke-width:1.0;stroke-dasharray:5.0,5.0;" x1="36" x2="36" y1="147.6016" y2="1261.2031"/><line style="stroke:#A80036;stroke-width:1.0;stroke-dasharray:5.0,5.0;" x1="350.5" x2="350.5" y1="147.6016" y2="1261.2031"/><line style="stroke:#A80036;stroke-width:1.0;stroke-dasharray:5.0,5.0;" x1="685.5" x2="685.5" y1="147.6016" y2="1261.2031"/><line style="stroke:#A80036;stroke-width:1.0;stroke-dasharray:5.0,5.0;" x1="947" x2="947" y1="147.6016" y2="1261.2031"/><line style="stroke:#A80036;stroke-width:1.0;stroke-dasharray:5.0,5.0;" x1="1291" x2="1291" y1="147.6016" y2="1261.2031"/><line style="stroke:#A80036;stroke-width:1.0;stroke-dasharray:5.0,5.0;" x1="1455" x2="1455" y1="147.6016" y2="1261.2031"/><line style="stroke:#A80036;stroke-width:1.0;stroke-dasharray:5.0,5.0;" x1="1608" x2="1608" y1="147.6016" y2="1261.2031"/><line style="stroke:#A80036;stroke-width:1.0;stroke-dasharray:5.0,5.0;" x1="1728" x2="1728" y1="147.6016" y2="1261.2031"/><text fill="#000000" font-family="sans-serif" font-size="14" lengthAdjust="spacing" textLength="56" x="5" y="144.5254">:Supplier</text><ellipse cx="36" cy="72.9922" fill="#FEFECE" filter="url(#fsoyjp5ulu822)" rx="8" ry="8" style="stroke:#A80036;stroke-width:2.0;"/><path d="M36,80.9922 L36,107.9922 M23,88.9922 L49,88.9922 M36,107.9922 L23,122.9922 M36,107.9922 L49,122.9922 " fill="none" filter="url(#fsoyjp5ulu822)" style="stroke:#A80036;stroke-width:2.0;"/><text fill="#000000" font-family="sans-serif" font-size="14" lengthAdjust="spacing" textLength="56" x="5" y="1274.7363">:Supplier</text><ellipse cx="36" cy="1287.8125" fill="#FEFECE" filter="url(#fsoyjp5ulu822)" rx="8" ry="8" style="stroke:#A80036;stroke-width:2.0;"/><path d="M36,1295.8125 L36,1322.8125 M23,1303.8125 L49,1303.8125 M36,1322.8125 L23,1337.8125 M36,1322.8125 L49,1337.8125 " fill="none" filter="url(#fsoyjp5ulu822)" style="stroke:#A80036;stroke-width:2.0;"/><rect fill="#FEFECE" filter="url(#fsoyjp5ulu822)" height="31.6094" style="stroke:#A80036;stroke-width:1.5;" width="107" x="295.5" y="110.9922"/><text fill="#000000" font-family="sans-serif" font-size="14" lengthAdjust="spacing" textLength="93" x="302.5" y="132.5254">:SupplierPortal</text><rect fill="#FEFECE" filter="url(#fsoyjp5ulu822)" height="31.6094" style="stroke:#A80036;stroke-width:1.5;" width="107" x="295.5" y="1260.2031"/><text fill="#000000" font-family="sans-serif" font-size="14" lengthAdjust="spacing" textLength="93" x="302.5" y="1281.7363">:SupplierPortal</text><rect fill="#FEFECE" filter="url(#fsoyjp5ulu822)" height="31.6094" style="stroke:#A80036;stroke-width:1.5;" width="139" x="614.5" y="110.9922"/><text fill="#000000" font-family="sans-serif" font-size="14" lengthAdjust="spacing" textLength="125" x="621.5" y="132.5254">:ShipmentController</text><rect fill="#FEFECE" filter="url(#fsoyjp5ulu822)" height="31.6094" style="stroke:#A80036;stroke-width:1.5;" width="139" x="614.5" y="1260.2031"/><text fill="#000000" font-family="sans-serif" font-size="14" lengthAdjust="spacing" textLength="125" x="621.5" y="1281.7363">:ShipmentController</text><rect fill="#FEFECE" filter="url(#fsoyjp5ulu822)" height="31.6094" style="stroke:#A80036;stroke-width:1.5;" width="140" x="875" y="110.9922"/><text fill="#000000" font-family="sans-serif" font-size="14" lengthAdjust="spacing" textLength="126" x="882" y="132.5254">:LeadTimeEstimator</text><rect fill="#FEFECE" filter="url(#fsoyjp5ulu822)" height="31.6094" style="stroke:#A80036;stroke-width:1.5;" width="140" x="875" y="1260.2031"/><text fill="#000000" font-family="sans-serif" font-size="14" lengthAdjust="spacing" textLength="126" x="882" y="1281.7363">:LeadTimeEstimator</text><rect fill="#FEFECE" filter="url(#fsoyjp5ulu822)" height="31.6094" style="stroke:#A80036;stroke-width:1.5;" width="166" x="1206" y="110.9922"/><text fill="#000000" font-family="sans-serif" font-size="14" lengthAdjust="spacing" textLength="152" x="1213" y="132.5254">:ReceivingStateMachine</text><rect fill="#FEFECE" filter="url(#fsoyjp5ulu822)" height="31.6094" style="stroke:#A80036;stroke-width:1.5;" width="166" x="1206" y="1260.2031"/><text fill="#000000" font-family="sans-serif" font-size="14" lengthAdjust="spacing" textLength="152" x="1213" y="1281.7363">:ReceivingStateMachine</text><rect fill="#FEFECE" filter="url(#fsoyjp5ulu822)" height="31.6094" style="stroke:#A80036;stroke-width:1.5;" width="134" x="1386" y="110.9922"/><text fill="#000000" font-family="sans-serif" font-size="14" lengthAdjust="spacing" textLength="120" x="1393" y="132.5254">:NotificationService</text><rect fill="#FEFECE" filter="url(#fsoyjp5ulu822)" height="31.6094" style="stroke:#A80036;stroke-width:1.5;" width="134" x="1386" y="1260.2031"/><text fill="#000000" font-family="sans-serif" font-size="14" lengthAdjust="spacing" textLength="120" x="1393" y="1281.7363">:NotificationService</text><rect fill="#FEFECE" filter="url(#fsoyjp5ulu822)" height="31.6094" style="stroke:#A80036;stroke-width:1.5;" width="145" x="1534" y="110.9922"/><text fill="#000000" font-family="sans-serif" font-size="14" lengthAdjust="spacing" textLength="131" x="1541" y="132.5254">:BackorderController</text><rect fill="#FEFECE" filter="url(#fsoyjp5ulu822)" height="31.6094" style="stroke:#A80036;stroke-width:1.5;" width="145" x="1534" y="1260.2031"/><text fill="#000000" font-family="sans-serif" font-size="14" lengthAdjust="spacing" textLength="131" x="1541" y="1281.7363">:BackorderController</text><text fill="#000000" font-family="sans-serif" font-size="14" lengthAdjust="spacing" textLength="65" x="1693" y="144.5254">:Database</text><path d="M1710.5,93.9922 C1710.5,83.9922 1728.5,83.9922 1728.5,83.9922 C1728.5,83.9922 1746.5,83.9922 1746.5,93.9922 L1746.5,119.9922 C1746.5,129.9922 1728.5,129.9922 1728.5,129.9922 C1728.5,129.9922 1710.5,129.9922 1710.5,119.9922 L1710.5,93.9922 " fill="#FEFECE" filter="url(#fsoyjp5ulu822)" style="stroke:#000000;stroke-width:1.5;"/><path d="M1710.5,93.9922 C1710.5,103.9922 1728.5,103.9922 1728.5,103.9922 C1728.5,103.9922 1746.5,103.9922 1746.5,93.9922 " fill="none" style="stroke:#000000;stroke-width:1.5;"/><text fill="#000000" font-family="sans-serif" font-size="14" lengthAdjust="spacing" textLength="65" x="1693" y="1274.7363">:Database</text><path d="M1710.5,1287.8125 C1710.5,1277.8125 1728.5,1277.8125 1728.5,1277.8125 C1728.5,1277.8125 1746.5,1277.8125 1746.5,1287.8125 L1746.5,1313.8125 C1746.5,1323.8125 1728.5,1323.8125 1728.5,1323.8125 C1728.5,1323.8125 1710.5,1323.8125 1710.5,1313.8125 L1710.5,1287.8125 " fill="#FEFECE" filter="url(#fsoyjp5ulu822)" style="stroke:#000000;stroke-width:1.5;"/><path d="M1710.5,1287.8125 C1710.5,1297.8125 1728.5,1297.8125 1728.5,1297.8125 C1728.5,1297.8125 1746.5,1297.8125 1746.5,1287.8125 " fill="none" style="stroke:#000000;stroke-width:1.5;"/><rect fill="#FFFFFF" filter="url(#fsoyjp5ulu822)" height="1022.8984" style="stroke:#A80036;stroke-width:1.0;" width="10" x="346" y="179.9531"/><rect fill="#FFFFFF" filter="url(#fsoyjp5ulu822)" height="992.5469" style="stroke:#A80036;stroke-width:1.0;" width="10" x="681" y="210.3047"/><rect fill="#FFFFFF" filter="url(#fsoyjp5ulu822)" height="177.7578" style="stroke:#A80036;stroke-width:1.0;" width="10" x="942" y="422.7656"/><rect fill="#FFFFFF" filter="url(#fsoyjp5ulu822)" height="41.3516" style="stroke:#A80036;stroke-width:1.0;" width="10" x="947" y="521.8203"/><rect fill="#FFFFFF" filter="url(#fsoyjp5ulu822)" height="91.0547" style="stroke:#A80036;stroke-width:1.0;" width="10" x="1286" y="630.875"/><rect fill="#FFFFFF" filter="url(#fsoyjp5ulu822)" height="30" style="stroke:#A80036;stroke-width:1.0;" width="10" x="1603.5" y="1172.8516"/><rect fill="#FFFFFF" filter="url(#fsoyjp5ulu822)" height="30.3516" style="stroke:#A80036;stroke-width:1.0;" width="10" x="1723.5" y="240.6563"/><rect fill="#FFFFFF" filter="url(#fsoyjp5ulu822)" height="30.3516" style="stroke:#A80036;stroke-width:1.0;" width="10" x="1723.5" y="453.1172"/><rect fill="#FFFFFF" filter="url(#fsoyjp5ulu822)" height="30.3516" style="stroke:#A80036;stroke-width:1.0;" width="10" x="1723.5" y="661.2266"/><rect fill="#FFFFFF" filter="url(#fsoyjp5ulu822)" height="30.3516" style="stroke:#A80036;stroke-width:1.0;" width="10" x="1723.5" y="782.6328"/><rect fill="#FFFFFF" filter="url(#fsoyjp5ulu822)" height="30.3516" style="stroke:#A80036;stroke-width:1.0;" width="10" x="1723.5" y="973.7422"/><polygon fill="#A80036" points="334,175.9531,344,179.9531,334,183.9531,338,179.9531" style="stroke:#A80036;stroke-width:1.0;"/><line style="stroke:#A80036;stroke-width:1.0;" x1="36" x2="340" y1="179.9531" y2="179.9531"/><text fill="#000000" font-family="sans-serif" font-size="13" lengthAdjust="spacing" textLength="156" x="43" y="175.0967">openShipmentUpdate(poId)</text><polygon fill="#A80036" points="669,206.3047,679,210.3047,669,214.3047,673,210.3047" style="stroke:#A80036;stroke-width:1.0;"/><line style="stroke:#A80036;stroke-width:1.0;" x1="356" x2="675" y1="210.3047" y2="210.3047"/><text fill="#000000" font-family="sans-serif" font-size="13" lengthAdjust="spacing" textLength="137" x="363" y="205.4482">fetchConfirmedPO(poId)</text><polygon fill="#A80036" points="1711.5,236.6563,1721.5,240.6563,1711.5,244.6563,1715.5,240.6563" style="stroke:#A80036;stroke-width:1.0;"/><line style="stroke:#A80036;stroke-width:1.0;" x1="691" x2="1717.5" y1="240.6563" y2="240.6563"/><text fill="#000000" font-family="sans-serif" font-size="13" lengthAdjust="spacing" textLength="69" x="698" y="235.7998">getPO(poId)</text><polygon fill="#A80036" points="702,267.0078,692,271.0078,702,275.0078,698,271.0078" style="stroke:#A80036;stroke-width:1.0;"/><line style="stroke:#A80036;stroke-width:1.0;stroke-dasharray:2.0,2.0;" x1="696" x2="1727.5" y1="271.0078" y2="271.0078"/><text fill="#000000" font-family="sans-serif" font-size="13" lengthAdjust="spacing" textLength="41" x="708" y="266.1514">poData</text><polygon fill="#A80036" points="367,297.3594,357,301.3594,367,305.3594,363,301.3594" style="stroke:#A80036;stroke-width:1.0;"/><line style="stroke:#A80036;stroke-width:1.0;stroke-dasharray:2.0,2.0;" x1="361" x2="680" y1="301.3594" y2="301.3594"/><text fill="#000000" font-family="sans-serif" font-size="13" lengthAdjust="spacing" textLength="175" x="373" y="296.5029">displayShipmentForm(poData)</text><polygon fill="#A80036" points="47,327.7109,37,331.7109,47,335.7109,43,331.7109" style="stroke:#A80036;stroke-width:1.0;"/><line style="stroke:#A80036;stroke-width:1.0;stroke-dasharray:2.0,2.0;" x1="41" x2="345" y1="331.7109" y2="331.7109"/><text fill="#000000" font-family="sans-serif" font-size="13" lengthAdjust="spacing" textLength="215" x="53" y="326.8545">showShipmentDispatchForm(poData)</text><polygon fill="#A80036" points="334,358.0625,344,362.0625,334,366.0625,338,362.0625" style="stroke:#A80036;stroke-width:1.0;"/><line style="stroke:#A80036;stroke-width:1.0;" x1="36" x2="340" y1="362.0625" y2="362.0625"/><text fill="#000000" font-family="sans-serif" font-size="13" lengthAdjust="spacing" textLength="286" x="43" y="357.2061">submitDispatchDetails(poId, dispatchDate, items)</text><polygon fill="#A80036" points="669,388.4141,679,392.4141,669,396.4141,673,392.4141" style="stroke:#A80036;stroke-width:1.0;"/><line style="stroke:#A80036;stroke-width:1.0;" x1="356" x2="675" y1="392.4141" y2="392.4141"/><text fill="#000000" font-family="sans-serif" font-size="13" lengthAdjust="spacing" textLength="301" x="363" y="387.5576">updateShipmentDispatch(poId, dispatchDate, items)</text><polygon fill="#A80036" points="930,418.7656,940,422.7656,930,426.7656,934,422.7656" style="stroke:#A80036;stroke-width:1.0;"/><line style="stroke:#A80036;stroke-width:1.0;" x1="691" x2="936" y1="422.7656" y2="422.7656"/><text fill="#000000" font-family="sans-serif" font-size="13" lengthAdjust="spacing" textLength="232" x="698" y="417.9092">estimateArrival(supplierId, dispatchDate)</text><polygon fill="#A80036" points="1711.5,449.1172,1721.5,453.1172,1711.5,457.1172,1715.5,453.1172" style="stroke:#A80036;stroke-width:1.0;"/><line style="stroke:#A80036;stroke-width:1.0;" x1="952" x2="1717.5" y1="453.1172" y2="453.1172"/><text fill="#000000" font-family="sans-serif" font-size="13" lengthAdjust="spacing" textLength="224" x="959" y="448.2607">fetchSupplierDeliveryHistory(supplierId)</text><polygon fill="#A80036" points="963,479.4688,953,483.4688,963,487.4688,959,483.4688" style="stroke:#A80036;stroke-width:1.0;"/><line style="stroke:#A80036;stroke-width:1.0;stroke-dasharray:2.0,2.0;" x1="957" x2="1727.5" y1="483.4688" y2="483.4688"/><text fill="#000000" font-family="sans-serif" font-size="13" lengthAdjust="spacing" textLength="92" x="969" y="478.6123">deliveryHistory[]</text><line style="stroke:#A80036;stroke-width:1.0;" x1="952" x2="999" y1="508.8203" y2="508.8203"/><line style="stroke:#A80036;stroke-width:1.0;" x1="999" x2="999" y1="508.8203" y2="521.8203"/><line style="stroke:#A80036;stroke-width:1.0;" x1="958" x2="999" y1="521.8203" y2="521.8203"/><polygon fill="#A80036" points="968,517.8203,958,521.8203,968,525.8203,964,521.8203" style="stroke:#A80036;stroke-width:1.0;"/><text fill="#000000" font-family="sans-serif" font-size="13" lengthAdjust="spacing" textLength="320" x="964" y="503.9639">computeEstimatedArrival(deliveryHistory, dispatchDate)</text><line style="stroke:#A80036;stroke-width:1.0;stroke-dasharray:2.0,2.0;" x1="957" x2="999" y1="562.1719" y2="562.1719"/><line style="stroke:#A80036;stroke-width:1.0;stroke-dasharray:2.0,2.0;" x1="999" x2="999" y1="562.1719" y2="575.1719"/><line style="stroke:#A80036;stroke-width:1.0;stroke-dasharray:2.0,2.0;" x1="952" x2="999" y1="575.1719" y2="575.1719"/><polygon fill="#A80036" points="962,571.1719,952,575.1719,962,579.1719,958,575.1719" style="stroke:#A80036;stroke-width:1.0;"/><text fill="#000000" font-family="sans-serif" font-size="13" lengthAdjust="spacing" textLength="119" x="964" y="557.3154">estimatedArrivalDate</text><polygon fill="#A80036" points="702,596.5234,692,600.5234,702,604.5234,698,600.5234" style="stroke:#A80036;stroke-width:1.0;"/><line style="stroke:#A80036;stroke-width:1.0;stroke-dasharray:2.0,2.0;" x1="696" x2="946" y1="600.5234" y2="600.5234"/><text fill="#000000" font-family="sans-serif" font-size="13" lengthAdjust="spacing" textLength="119" x="708" y="595.667">estimatedArrivalDate</text><polygon fill="#A80036" points="1274,626.875,1284,630.875,1274,634.875,1278,630.875" style="stroke:#A80036;stroke-width:1.0;"/><line style="stroke:#A80036;stroke-width:1.0;" x1="691" x2="1280" y1="630.875" y2="630.875"/><text fill="#000000" font-family="sans-serif" font-size="13" lengthAdjust="spacing" textLength="223" x="698" y="626.0186">initReceivingStateMachine(shipmentId)</text><polygon fill="#A80036" points="1711.5,657.2266,1721.5,661.2266,1711.5,665.2266,1715.5,661.2266" style="stroke:#A80036;stroke-width:1.0;"/><line style="stroke:#A80036;stroke-width:1.0;" x1="1296" x2="1717.5" y1="661.2266" y2="661.2266"/><text fill="#000000" font-family="sans-serif" font-size="13" lengthAdjust="spacing" textLength="248" x="1303" y="656.3701">setShipmentState(shipmentId, "Expected")</text><polygon fill="#A80036" points="1307,687.5781,1297,691.5781,1307,695.5781,1303,691.5781" style="stroke:#A80036;stroke-width:1.0;"/><line style="stroke:#A80036;stroke-width:1.0;stroke-dasharray:2.0,2.0;" x1="1301" x2="1727.5" y1="691.5781" y2="691.5781"/><text fill="#000000" font-family="sans-serif" font-size="13" lengthAdjust="spacing" textLength="18" x="1313" y="686.7217">set</text><polygon fill="#A80036" points="702,717.9297,692,721.9297,702,725.9297,698,721.9297" style="stroke:#A80036;stroke-width:1.0;"/><line style="stroke:#A80036;stroke-width:1.0;stroke-dasharray:2.0,2.0;" x1="696" x2="1290" y1="721.9297" y2="721.9297"/><text fill="#000000" font-family="sans-serif" font-size="13" lengthAdjust="spacing" textLength="242" x="708" y="717.0732">stateMachineInitialized(state="Expected")</text><line style="stroke:#A80036;stroke-width:1.0;" x1="1453" x2="1443" y1="752.2813" y2="748.2813"/><line style="stroke:#A80036;stroke-width:1.0;" x1="1453" x2="1443" y1="752.2813" y2="756.2813"/><line style="stroke:#A80036;stroke-width:1.0;" x1="691" x2="1454" y1="752.2813" y2="752.2813"/><text fill="#000000" font-family="sans-serif" font-size="13" lengthAdjust="spacing" textLength="316" x="698" y="747.4248">notifyManagerAsync(estimatedArrivalDate, shipmentId)</text><polygon fill="#A80036" points="1711.5,778.6328,1721.5,782.6328,1711.5,786.6328,1715.5,782.6328" style="stroke:#A80036;stroke-width:1.0;"/><line style="stroke:#A80036;stroke-width:1.0;" x1="691" x2="1717.5" y1="782.6328" y2="782.6328"/><text fill="#000000" font-family="sans-serif" font-size="13" lengthAdjust="spacing" textLength="377" x="698" y="777.7764">persistShipmentDetails(poId, dispatchDate, estimatedArrivalDate)</text><polygon fill="#A80036" points="702,808.9844,692,812.9844,702,816.9844,698,812.9844" style="stroke:#A80036;stroke-width:1.0;"/><line style="stroke:#A80036;stroke-width:1.0;stroke-dasharray:2.0,2.0;" x1="696" x2="1727.5" y1="812.9844" y2="812.9844"/><text fill="#000000" font-family="sans-serif" font-size="13" lengthAdjust="spacing" textLength="33" x="708" y="808.1279">saved</text><polygon fill="#A80036" points="367,839.3359,357,843.3359,367,847.3359,363,843.3359" style="stroke:#A80036;stroke-width:1.0;"/><line style="stroke:#A80036;stroke-width:1.0;stroke-dasharray:2.0,2.0;" x1="361" x2="680" y1="843.3359" y2="843.3359"/><text fill="#000000" font-family="sans-serif" font-size="13" lengthAdjust="spacing" textLength="228" x="373" y="838.4795">shipmentUpdated(estimatedArrivalDate)</text><polygon fill="#A80036" points="47,869.6875,37,873.6875,47,877.6875,43,873.6875" style="stroke:#A80036;stroke-width:1.0;"/><line style="stroke:#A80036;stroke-width:1.0;stroke-dasharray:2.0,2.0;" x1="41" x2="345" y1="873.6875" y2="873.6875"/><text fill="#000000" font-family="sans-serif" font-size="13" lengthAdjust="spacing" textLength="263" x="53" y="868.8311">confirmEstimatedArrival(estimatedArrivalDate)</text><rect fill="#EEEEEE" filter="url(#fsoyjp5ulu822)" height="3" style="stroke:#EEEEEE;stroke-width:1.0;" width="1791" x="0" y="902.8633"/><line style="stroke:#000000;stroke-width:1.0;" x1="0" x2="1791" y1="902.8633" y2="902.8633"/><line style="stroke:#000000;stroke-width:1.0;" x1="0" x2="1791" y1="905.8633" y2="905.8633"/><rect fill="#EEEEEE" filter="url(#fsoyjp5ulu822)" height="24.3516" style="stroke:#000000;stroke-width:2.0;" width="210.4063" x="790.2969" y="891.6875"/><text fill="#000000" font-family="sans-serif" font-size="13" font-weight="bold" lengthAdjust="spacing" textLength="192.4063" x="796.2969" y="909.1826">opt: Extension Point — Carrier</text><path d="M285.5,933.0391 L350.5,933.0391 L350.5,941.0391 L340.5,951.0391 L285.5,951.0391 L285.5,933.0391 " fill="#EEEEEE" style="stroke:#000000;stroke-width:1.0;"/><rect fill="none" height="166.1094" style="stroke:#000000;stroke-width:2.0;" width="1488.5" x="285.5" y="933.0391"/><text fill="#000000" font-family="sans-serif" font-size="13" font-weight="bold" lengthAdjust="spacing" textLength="20" x="300.5" y="947.5342">opt</text><text fill="#000000" font-family="sans-serif" font-size="11" font-weight="bold" lengthAdjust="spacing" textLength="186" x="365.5" y="946.458">[no carrier assigned to shipment]</text><polygon fill="#A80036" points="1711.5,969.7422,1721.5,973.7422,1711.5,977.7422,1715.5,973.7422" style="stroke:#A80036;stroke-width:1.0;"/><line style="stroke:#A80036;stroke-width:1.0;" x1="691" x2="1717.5" y1="973.7422" y2="973.7422"/><text fill="#000000" font-family="sans-serif" font-size="13" lengthAdjust="spacing" textLength="213" x="698" y="968.8857">checkCarrierAssignment(shipmentId)</text><polygon fill="#A80036" points="702,1000.0938,692,1004.0938,702,1008.0938,698,1004.0938" style="stroke:#A80036;stroke-width:1.0;"/><line style="stroke:#A80036;stroke-width:1.0;stroke-dasharray:2.0,2.0;" x1="696" x2="1727.5" y1="1004.0938" y2="1004.0938"/><text fill="#000000" font-family="sans-serif" font-size="13" lengthAdjust="spacing" textLength="125" x="708" y="999.2373">carrierAssigned=false</text><polygon fill="#A80036" points="367,1030.4453,357,1034.4453,367,1038.4453,363,1034.4453" style="stroke:#A80036;stroke-width:1.0;"/><line style="stroke:#A80036;stroke-width:1.0;stroke-dasharray:2.0,2.0;" x1="361" x2="680" y1="1034.4453" y2="1034.4453"/><text fill="#000000" font-family="sans-serif" font-size="13" lengthAdjust="spacing" textLength="199" x="373" y="1029.5889">triggerCarrierSelection(shipmentId)</text><path d="M696,1047.4453 L696,1089.4453 L858,1089.4453 L858,1057.4453 L848,1047.4453 L696,1047.4453 " fill="#FBFB77" filter="url(#fsoyjp5ulu822)" style="stroke:#A80036;stroke-width:1.0;"/><path d="M848,1047.4453 L848,1057.4453 L858,1057.4453 L848,1047.4453 " fill="#FBFB77" style="stroke:#A80036;stroke-width:1.0;"/><text fill="#000000" font-family="sans-serif" font-size="13" lengthAdjust="spacing" textLength="86" x="702" y="1065.9404">Triggers UC-19</text><text fill="#000000" font-family="sans-serif" font-size="13" lengthAdjust="spacing" textLength="141" x="702" y="1082.292">(Select Shipping Carrier)</text><rect fill="#EEEEEE" filter="url(#fsoyjp5ulu822)" height="3" style="stroke:#EEEEEE;stroke-width:1.0;" width="1791" x="0" y="1127.3242"/><line style="stroke:#000000;stroke-width:1.0;" x1="0" x2="1791" y1="1127.3242" y2="1127.3242"/><line style="stroke:#000000;stroke-width:1.0;" x1="0" x2="1791" y1="1130.3242" y2="1130.3242"/><rect fill="#EEEEEE" filter="url(#fsoyjp5ulu822)" height="24.3516" style="stroke:#000000;stroke-width:2.0;" width="239" x="776" y="1116.1484"/><text fill="#000000" font-family="sans-serif" font-size="13" font-weight="bold" lengthAdjust="spacing" textLength="221" x="782" y="1133.6436">include: UC-18 Manage Backorders</text><polygon fill="#A80036" points="1591.5,1168.8516,1601.5,1172.8516,1591.5,1176.8516,1595.5,1172.8516" style="stroke:#A80036;stroke-width:1.0;"/><line style="stroke:#A80036;stroke-width:1.0;" x1="691" x2="1597.5" y1="1172.8516" y2="1172.8516"/><text fill="#000000" font-family="sans-serif" font-size="13" lengthAdjust="spacing" textLength="203" x="698" y="1167.9951">triggerBackorderCheck(shipmentId)</text><path d="M1613,1215.8516 L1613,1241.8516 L1782,1241.8516 L1782,1225.8516 L1772,1215.8516 L1613,1215.8516 " fill="#FBFB77" filter="url(#fsoyjp5ulu822)" style="stroke:#A80036;stroke-width:1.0;"/><path d="M1772,1215.8516 L1772,1225.8516 L1782,1225.8516 L1772,1215.8516 " fill="#FBFB77" style="stroke:#A80036;stroke-width:1.0;"/><text fill="#000000" font-family="sans-serif" font-size="13" lengthAdjust="spacing" textLength="148" x="1619" y="1234.3467">Executes UC-18 workflow</text><!--MD5=[009bd72eda925aff2bb928fe466019e0]
@startuml UC-17_Update_Shipment_Lead_Time
title UC-17 — Update Shipment & Lead Time

box "Actors"
actor ":Supplier" as Supplier
end box

box "System"
participant ":SupplierPortal" as SP
participant ":ShipmentController" as SC
participant ":LeadTimeEstimator" as LTE
participant ":ReceivingStateMachine" as RSM
participant ":NotificationService" as NS
participant ":BackorderController" as BC
database ":Database" as DB
end box

Supplier -> SP : openShipmentUpdate(poId)
activate SP

SP -> SC : fetchConfirmedPO(poId)
activate SC
SC -> DB : getPO(poId)
activate DB
DB - -> SC : poData
deactivate DB
SC - -> SP : displayShipmentForm(poData)
SP - -> Supplier : showShipmentDispatchForm(poData)

Supplier -> SP : submitDispatchDetails(poId, dispatchDate, items)
SP -> SC : updateShipmentDispatch(poId, dispatchDate, items)

SC -> LTE : estimateArrival(supplierId, dispatchDate)
activate LTE
LTE -> DB : fetchSupplierDeliveryHistory(supplierId)
activate DB
DB - -> LTE : deliveryHistory[]
deactivate DB
LTE -> LTE : computeEstimatedArrival(deliveryHistory, dispatchDate)
activate LTE
LTE - -> LTE : estimatedArrivalDate
deactivate LTE
LTE - -> SC : estimatedArrivalDate
deactivate LTE

SC -> RSM : initReceivingStateMachine(shipmentId)
activate RSM
RSM -> DB : setShipmentState(shipmentId, "Expected")
activate DB
DB - -> RSM : set
deactivate DB
RSM - -> SC : stateMachineInitialized(state="Expected")
deactivate RSM

' Asynchronous non-blocking notification
SC ->> NS : notifyManagerAsync(estimatedArrivalDate, shipmentId)

SC -> DB : persistShipmentDetails(poId, dispatchDate, estimatedArrivalDate)
activate DB
DB - -> SC : saved
deactivate DB

SC - -> SP : shipmentUpdated(estimatedArrivalDate)
SP - -> Supplier : confirmEstimatedArrival(estimatedArrivalDate)

== opt: Extension Point — Carrier ==

opt no carrier assigned to shipment
    SC -> DB : checkCarrierAssignment(shipmentId)
    activate DB
    DB - -> SC : carrierAssigned=false
    deactivate DB
    SC - -> SP : triggerCarrierSelection(shipmentId)
    note right of SC : Triggers UC-19\n(Select Shipping Carrier)
end

== include: UC-18 Manage Backorders ==

SC -> BC : triggerBackorderCheck(shipmentId)
activate BC
note right of BC : Executes UC-18 workflow
deactivate BC

deactivate SC
deactivate SP

@enduml

@startuml UC-17_Update_Shipment_Lead_Time
title UC-17 — Update Shipment & Lead Time

box "Actors"
actor ":Supplier" as Supplier
end box

box "System"
participant ":SupplierPortal" as SP
participant ":ShipmentController" as SC
participant ":LeadTimeEstimator" as LTE
participant ":ReceivingStateMachine" as RSM
participant ":NotificationService" as NS
participant ":BackorderController" as BC
database ":Database" as DB
end box

Supplier -> SP : openShipmentUpdate(poId)
activate SP

SP -> SC : fetchConfirmedPO(poId)
activate SC
SC -> DB : getPO(poId)
activate DB
DB - -> SC : poData
deactivate DB
SC - -> SP : displayShipmentForm(poData)
SP - -> Supplier : showShipmentDispatchForm(poData)

Supplier -> SP : submitDispatchDetails(poId, dispatchDate, items)
SP -> SC : updateShipmentDispatch(poId, dispatchDate, items)

SC -> LTE : estimateArrival(supplierId, dispatchDate)
activate LTE
LTE -> DB : fetchSupplierDeliveryHistory(supplierId)
activate DB
DB - -> LTE : deliveryHistory[]
deactivate DB
LTE -> LTE : computeEstimatedArrival(deliveryHistory, dispatchDate)
activate LTE
LTE - -> LTE : estimatedArrivalDate
deactivate LTE
LTE - -> SC : estimatedArrivalDate
deactivate LTE

SC -> RSM : initReceivingStateMachine(shipmentId)
activate RSM
RSM -> DB : setShipmentState(shipmentId, "Expected")
activate DB
DB - -> RSM : set
deactivate DB
RSM - -> SC : stateMachineInitialized(state="Expected")
deactivate RSM

SC ->> NS : notifyManagerAsync(estimatedArrivalDate, shipmentId)

SC -> DB : persistShipmentDetails(poId, dispatchDate, estimatedArrivalDate)
activate DB
DB - -> SC : saved
deactivate DB

SC - -> SP : shipmentUpdated(estimatedArrivalDate)
SP - -> Supplier : confirmEstimatedArrival(estimatedArrivalDate)

== opt: Extension Point — Carrier ==

opt no carrier assigned to shipment
    SC -> DB : checkCarrierAssignment(shipmentId)
    activate DB
    DB - -> SC : carrierAssigned=false
    deactivate DB
    SC - -> SP : triggerCarrierSelection(shipmentId)
    note right of SC : Triggers UC-19\n(Select Shipping Carrier)
end

== include: UC-18 Manage Backorders ==

SC -> BC : triggerBackorderCheck(shipmentId)
activate BC
note right of BC : Executes UC-18 workflow
deactivate BC

deactivate SC
deactivate SP

@enduml

PlantUML version 1.2021.00(Sun Jan 10 12:25:05 EET 2021)
(MIT source distribution)
Java Runtime: Java(TM) SE Runtime Environment
JVM: Java HotSpot(TM) 64-Bit Server VM
Default Encoding: UTF-8
Language: en
Country: US
--></g></svg>