<?xml version="1.0" encoding="UTF-8" standalone="no"?><svg xmlns="http://www.w3.org/2000/svg" xmlns:xlink="http://www.w3.org/1999/xlink" contentScriptType="application/ecmascript" contentStyleType="text/css" height="1005px" preserveAspectRatio="none" style="width:1333px;height:1005px;" version="1.1" viewBox="0 0 1333 1005" width="1333px" zoomAndPan="magnify"><defs><filter height="300%" id="f1p4gwq93tjn9r" width="300%" x="-1" y="-1"><feGaussianBlur result="blurOut" stdDeviation="2.0"/><feColorMatrix in="blurOut" result="blurOut2" type="matrix" values="0 0 0 0 0 0 0 0 0 0 0 0 0 0 0 0 0 0 .4 0"/><feOffset dx="4.0" dy="4.0" in="blurOut2" result="blurOut3"/><feBlend in="SourceGraphic" in2="blurOut3" mode="normal"/></filter></defs><g><text fill="#000000" font-family="sans-serif" font-size="18" lengthAdjust="spacing" textLength="301" x="513.75" y="30.6855">UC-20 — Undergo Performance Audit</text><rect fill="#DDDDDD" height="957.0078" style="stroke:#A80036;stroke-width:1.0;" width="70" x="1" y="42.6406"/><text fill="#000000" font-family="sans-serif" font-size="13" font-weight="bold" lengthAdjust="spacing" textLength="39" x="16.5" y="56.1357">Actors</text><rect fill="#DDDDDD" height="957.0078" style="stroke:#A80036;stroke-width:1.0;" width="1005" x="322.5" y="42.6406"/><text fill="#000000" font-family="sans-serif" font-size="13" font-weight="bold" lengthAdjust="spacing" textLength="46" x="802" y="56.1357">System</text><rect fill="#FFFFFF" filter="url(#f1p4gwq93tjn9r)" height="714.0859" style="stroke:#A80036;stroke-width:1.0;" width="10" x="377" y="179.9531"/><rect fill="#FFFFFF" filter="url(#f1p4gwq93tjn9r)" height="653.3828" style="stroke:#A80036;stroke-width:1.0;" width="10" x="720" y="210.3047"/><rect fill="#FFFFFF" filter="url(#f1p4gwq93tjn9r)" height="41.3516" style="stroke:#A80036;stroke-width:1.0;" width="10" x="725" y="309.3594"/><rect fill="#FFFFFF" filter="url(#f1p4gwq93tjn9r)" height="311.5156" style="stroke:#A80036;stroke-width:1.0;" width="10" x="1061" y="521.8203"/><rect fill="#FFFFFF" filter="url(#f1p4gwq93tjn9r)" height="41.3516" style="stroke:#A80036;stroke-width:1.0;" width="10" x="1066" y="620.875"/><rect fill="#FFFFFF" filter="url(#f1p4gwq93tjn9r)" height="30.3516" style="stroke:#A80036;stroke-width:1.0;" width="10" x="1283" y="240.6563"/><rect fill="#FFFFFF" filter="url(#f1p4gwq93tjn9r)" height="30.3516" style="stroke:#A80036;stroke-width:1.0;" width="10" x="1283" y="461.1172"/><rect fill="#FFFFFF" filter="url(#f1p4gwq93tjn9r)" height="30.3516" style="stroke:#A80036;stroke-width:1.0;" width="10" x="1283" y="552.1719"/><rect fill="#FFFFFF" filter="url(#f1p4gwq93tjn9r)" height="30.3516" style="stroke:#A80036;stroke-width:1.0;" width="10" x="1283" y="772.6328"/><line style="stroke:#A80036;stroke-width:1.0;stroke-dasharray:5.0,5.0;" x1="36" x2="36" y1="147.6016" y2="912.0391"/><line style="stroke:#A80036;stroke-width:1.0;stroke-dasharray:5.0,5.0;" x1="381.5" x2="381.5" y1="147.6016" y2="912.0391"/><line style="stroke:#A80036;stroke-width:1.0;stroke-dasharray:5.0,5.0;" x1="725" x2="725" y1="147.6016" y2="912.0391"/><line style="stroke:#A80036;stroke-width:1.0;stroke-dasharray:5.0,5.0;" x1="1066" x2="1066" y1="147.6016" y2="912.0391"/><line style="stroke:#A80036;stroke-width:1.0;stroke-dasharray:5.0,5.0;" x1="1287.5" x2="1287.5" y1="147.6016" y2="912.0391"/><text fill="#000000" font-family="sans-serif" font-size="14" lengthAdjust="spacing" textLength="56" x="5" y="144.5254">:Supplier</text><ellipse cx="36" cy="72.9922" fill="#FEFECE" filter="url(#f1p4gwq93tjn9r)" rx="8" ry="8" style="stroke:#A80036;stroke-width:2.0;"/><path d="M36,80.9922 L36,107.9922 M23,88.9922 L49,88.9922 M36,107.9922 L23,122.9922 M36,107.9922 L49,122.9922 " fill="none" filter="url(#f1p4gwq93tjn9r)" style="stroke:#A80036;stroke-width:2.0;"/><text fill="#000000" font-family="sans-serif" font-size="14" lengthAdjust="spacing" textLength="56" x="5" y="925.5723">:Supplier</text><ellipse cx="36" cy="938.6484" fill="#FEFECE" filter="url(#f1p4gwq93tjn9r)" rx="8" ry="8" style="stroke:#A80036;stroke-width:2.0;"/><path d="M36,946.6484 L36,973.6484 M23,954.6484 L49,954.6484 M36,973.6484 L23,988.6484 M36,973.6484 L49,988.6484 " fill="none" filter="url(#f1p4gwq93tjn9r)" style="stroke:#A80036;stroke-width:2.0;"/><rect fill="#FEFECE" filter="url(#f1p4gwq93tjn9r)" height="31.6094" style="stroke:#A80036;stroke-width:1.5;" width="107" x="326.5" y="110.9922"/><text fill="#000000" font-family="sans-serif" font-size="14" lengthAdjust="spacing" textLength="93" x="333.5" y="132.5254">:SupplierPortal</text><rect fill="#FEFECE" filter="url(#f1p4gwq93tjn9r)" height="31.6094" style="stroke:#A80036;stroke-width:1.5;" width="107" x="326.5" y="911.0391"/><text fill="#000000" font-family="sans-serif" font-size="14" lengthAdjust="spacing" textLength="93" x="333.5" y="932.5723">:SupplierPortal</text><rect fill="#FEFECE" filter="url(#f1p4gwq93tjn9r)" height="31.6094" style="stroke:#A80036;stroke-width:1.5;" width="112" x="667" y="110.9922"/><text fill="#000000" font-family="sans-serif" font-size="14" lengthAdjust="spacing" textLength="98" x="674" y="132.5254">:AuditController</text><rect fill="#FEFECE" filter="url(#f1p4gwq93tjn9r)" height="31.6094" style="stroke:#A80036;stroke-width:1.5;" width="112" x="667" y="911.0391"/><text fill="#000000" font-family="sans-serif" font-size="14" lengthAdjust="spacing" textLength="98" x="674" y="932.5723">:AuditController</text><rect fill="#FEFECE" filter="url(#f1p4gwq93tjn9r)" height="31.6094" style="stroke:#A80036;stroke-width:1.5;" width="142" x="993" y="110.9922"/><text fill="#000000" font-family="sans-serif" font-size="14" lengthAdjust="spacing" textLength="128" x="1000" y="132.5254">:TierRankingService</text><rect fill="#FEFECE" filter="url(#f1p4gwq93tjn9r)" height="31.6094" style="stroke:#A80036;stroke-width:1.5;" width="142" x="993" y="911.0391"/><text fill="#000000" font-family="sans-serif" font-size="14" lengthAdjust="spacing" textLength="128" x="1000" y="932.5723">:TierRankingService</text><text fill="#000000" font-family="sans-serif" font-size="14" lengthAdjust="spacing" textLength="65" x="1252.5" y="144.5254">:Database</text><path d="M1270,93.9922 C1270,83.9922 1288,83.9922 1288,83.9922 C1288,83.9922 1306,83.9922 1306,93.9922 L1306,119.9922 C1306,129.9922 1288,129.9922 1288,129.9922 C1288,129.9922 1270,129.9922 1270,119.9922 L1270,93.9922 " fill="#FEFECE" filter="url(#f1p4gwq93tjn9r)" style="stroke:#000000;stroke-width:1.5;"/><path d="M1270,93.9922 C1270,103.9922 1288,103.9922 1288,103.9922 C1288,103.9922 1306,103.9922 1306,93.9922 " fill="none" style="stroke:#000000;stroke-width:1.5;"/><text fill="#000000" font-family="sans-serif" font-size="14" lengthAdjust="spacing" textLength="65" x="1252.5" y="925.5723">:Database</text><path d="M1270,938.6484 C1270,928.6484 1288,928.6484 1288,928.6484 C1288,928.6484 1306,928.6484 1306,938.6484 L1306,964.6484 C1306,974.6484 1288,974.6484 1288,974.6484 C1288,974.6484 1270,974.6484 1270,964.6484 L1270,938.6484 " fill="#FEFECE" filter="url(#f1p4gwq93tjn9r)" style="stroke:#000000;stroke-width:1.5;"/><path d="M1270,938.6484 C1270,948.6484 1288,948.6484 1288,948.6484 C1288,948.6484 1306,948.6484 1306,938.6484 " fill="none" style="stroke:#000000;stroke-width:1.5;"/><rect fill="#FFFFFF" filter="url(#f1p4gwq93tjn9r)" height="714.0859" style="stroke:#A80036;stroke-width:1.0;" width="10" x="377" y="179.9531"/><rect fill="#FFFFFF" filter="url(#f1p4gwq93tjn9r)" height="653.3828" style="stroke:#A80036;stroke-width:1.0;" width="10" x="720" y="210.3047"/><rect fill="#FFFFFF" filter="url(#f1p4gwq93tjn9r)" height="41.3516" style="stroke:#A80036;stroke-width:1.0;" width="10" x="725" y="309.3594"/><rect fill="#FFFFFF" filter="url(#f1p4gwq93tjn9r)" height="311.5156" style="stroke:#A80036;stroke-width:1.0;" width="10" x="1061" y="521.8203"/><rect fill="#FFFFFF" filter="url(#f1p4gwq93tjn9r)" height="41.3516" style="stroke:#A80036;stroke-width:1.0;" width="10" x="1066" y="620.875"/><rect fill="#FFFFFF" filter="url(#f1p4gwq93tjn9r)" height="30.3516" style="stroke:#A80036;stroke-width:1.0;" width="10" x="1283" y="240.6563"/><rect fill="#FFFFFF" filter="url(#f1p4gwq93tjn9r)" height="30.3516" style="stroke:#A80036;stroke-width:1.0;" width="10" x="1283" y="461.1172"/><rect fill="#FFFFFF" filter="url(#f1p4gwq93tjn9r)" height="30.3516" style="stroke:#A80036;stroke-width:1.0;" width="10" x="1283" y="552.1719"/><rect fill="#FFFFFF" filter="url(#f1p4gwq93tjn9r)" height="30.3516" style="stroke:#A80036;stroke-width:1.0;" width="10" x="1283" y="772.6328"/><polygon fill="#A80036" points="365,175.9531,375,179.9531,365,183.9531,369,179.9531" style="stroke:#A80036;stroke-width:1.0;"/><line style="stroke:#A80036;stroke-width:1.0;" x1="36" x2="371" y1="179.9531" y2="179.9531"/><text fill="#000000" font-family="sans-serif" font-size="13" lengthAdjust="spacing" textLength="147" x="43" y="175.0967">openPerformanceReport()</text><polygon fill="#A80036" points="708,206.3047,718,210.3047,708,214.3047,712,210.3047" style="stroke:#A80036;stroke-width:1.0;"/><line style="stroke:#A80036;stroke-width:1.0;" x1="387" x2="714" y1="210.3047" y2="210.3047"/><text fill="#000000" font-family="sans-serif" font-size="13" lengthAdjust="spacing" textLength="209" x="394" y="205.4482">requestPerformanceAudit(supplierId)</text><polygon fill="#A80036" points="1271,236.6563,1281,240.6563,1271,244.6563,1275,240.6563" style="stroke:#A80036;stroke-width:1.0;"/><line style="stroke:#A80036;stroke-width:1.0;" x1="730" x2="1277" y1="240.6563" y2="240.6563"/><text fill="#000000" font-family="sans-serif" font-size="13" lengthAdjust="spacing" textLength="177" x="737" y="235.7998">fetchDeliveryHistory(supplierId)</text><polygon fill="#A80036" points="741,267.0078,731,271.0078,741,275.0078,737,271.0078" style="stroke:#A80036;stroke-width:1.0;"/><line style="stroke:#A80036;stroke-width:1.0;stroke-dasharray:2.0,2.0;" x1="735" x2="1287" y1="271.0078" y2="271.0078"/><text fill="#000000" font-family="sans-serif" font-size="13" lengthAdjust="spacing" textLength="406" x="747" y="266.1514">deliveryHistory{ordersPlaced, itemsOrdered, itemsCorrectlyReceived}[]</text><line style="stroke:#A80036;stroke-width:1.0;" x1="730" x2="777" y1="296.3594" y2="296.3594"/><line style="stroke:#A80036;stroke-width:1.0;" x1="777" x2="777" y1="296.3594" y2="309.3594"/><line style="stroke:#A80036;stroke-width:1.0;" x1="736" x2="777" y1="309.3594" y2="309.3594"/><polygon fill="#A80036" points="746,305.3594,736,309.3594,746,313.3594,742,309.3594" style="stroke:#A80036;stroke-width:1.0;"/><text fill="#000000" font-family="sans-serif" font-size="13" lengthAdjust="spacing" textLength="233" x="742" y="291.5029">calculateAccuracyScore(deliveryHistory)</text><line style="stroke:#A80036;stroke-width:1.0;stroke-dasharray:2.0,2.0;" x1="735" x2="777" y1="349.7109" y2="349.7109"/><line style="stroke:#A80036;stroke-width:1.0;stroke-dasharray:2.0,2.0;" x1="777" x2="777" y1="349.7109" y2="362.7109"/><line style="stroke:#A80036;stroke-width:1.0;stroke-dasharray:2.0,2.0;" x1="730" x2="777" y1="362.7109" y2="362.7109"/><polygon fill="#A80036" points="740,358.7109,730,362.7109,740,366.7109,736,362.7109" style="stroke:#A80036;stroke-width:1.0;"/><text fill="#000000" font-family="sans-serif" font-size="13" lengthAdjust="spacing" textLength="87" x="742" y="344.8545">accuracyScore</text><path d="M735,370.7109 L735,429.7109 L1054,429.7109 L1054,380.7109 L1044,370.7109 L735,370.7109 " fill="#FBFB77" filter="url(#f1p4gwq93tjn9r)" style="stroke:#A80036;stroke-width:1.0;"/><path d="M1044,370.7109 L1044,380.7109 L1054,380.7109 L1044,370.7109 " fill="#FBFB77" style="stroke:#A80036;stroke-width:1.0;"/><text fill="#000000" font-family="sans-serif" font-size="13" lengthAdjust="spacing" textLength="105" x="741" y="389.2061">Accuracy Score =</text><text fill="#000000" font-family="sans-serif" font-size="13" lengthAdjust="spacing" textLength="226" x="741" y="405.5576">itemsCorrectlyReceived / itemsOrdered</text><text fill="#000000" font-family="sans-serif" font-size="13" lengthAdjust="spacing" textLength="298" x="741" y="421.9092">(updated after every inbound reconciliation — FR14)</text><polygon fill="#A80036" points="1271,457.1172,1281,461.1172,1271,465.1172,1275,461.1172" style="stroke:#A80036;stroke-width:1.0;"/><line style="stroke:#A80036;stroke-width:1.0;" x1="730" x2="1277" y1="461.1172" y2="461.1172"/><text fill="#000000" font-family="sans-serif" font-size="13" lengthAdjust="spacing" textLength="334" x="737" y="456.2607">persistUpdatedAccuracyScore(supplierId, accuracyScore)</text><polygon fill="#A80036" points="741,487.4688,731,491.4688,741,495.4688,737,491.4688" style="stroke:#A80036;stroke-width:1.0;"/><line style="stroke:#A80036;stroke-width:1.0;stroke-dasharray:2.0,2.0;" x1="735" x2="1287" y1="491.4688" y2="491.4688"/><text fill="#000000" font-family="sans-serif" font-size="13" lengthAdjust="spacing" textLength="33" x="747" y="486.6123">saved</text><polygon fill="#A80036" points="1049,517.8203,1059,521.8203,1049,525.8203,1053,521.8203" style="stroke:#A80036;stroke-width:1.0;"/><line style="stroke:#A80036;stroke-width:1.0;" x1="730" x2="1055" y1="521.8203" y2="521.8203"/><text fill="#000000" font-family="sans-serif" font-size="13" lengthAdjust="spacing" textLength="312" x="737" y="516.9639">updateSupplierTierRanking(supplierId, accuracyScore)</text><polygon fill="#A80036" points="1271,548.1719,1281,552.1719,1271,556.1719,1275,552.1719" style="stroke:#A80036;stroke-width:1.0;"/><line style="stroke:#A80036;stroke-width:1.0;" x1="1071" x2="1277" y1="552.1719" y2="552.1719"/><text fill="#000000" font-family="sans-serif" font-size="13" lengthAdjust="spacing" textLength="139" x="1078" y="547.3154">fetchAllSupplierScores()</text><polygon fill="#A80036" points="1082,578.5234,1072,582.5234,1082,586.5234,1078,582.5234" style="stroke:#A80036;stroke-width:1.0;"/><line style="stroke:#A80036;stroke-width:1.0;stroke-dasharray:2.0,2.0;" x1="1076" x2="1287" y1="582.5234" y2="582.5234"/><text fill="#000000" font-family="sans-serif" font-size="13" lengthAdjust="spacing" textLength="62" x="1088" y="577.667">allScores[]</text><line style="stroke:#A80036;stroke-width:1.0;" x1="1071" x2="1118" y1="607.875" y2="607.875"/><line style="stroke:#A80036;stroke-width:1.0;" x1="1118" x2="1118" y1="607.875" y2="620.875"/><line style="stroke:#A80036;stroke-width:1.0;" x1="1077" x2="1118" y1="620.875" y2="620.875"/><polygon fill="#A80036" points="1087,616.875,1077,620.875,1087,624.875,1083,620.875" style="stroke:#A80036;stroke-width:1.0;"/><text fill="#000000" font-family="sans-serif" font-size="13" lengthAdjust="spacing" textLength="198" x="1083" y="603.0186">recomputeTierRankings(allScores)</text><line style="stroke:#A80036;stroke-width:1.0;stroke-dasharray:2.0,2.0;" x1="1076" x2="1118" y1="661.2266" y2="661.2266"/><line style="stroke:#A80036;stroke-width:1.0;stroke-dasharray:2.0,2.0;" x1="1118" x2="1118" y1="661.2266" y2="674.2266"/><line style="stroke:#A80036;stroke-width:1.0;stroke-dasharray:2.0,2.0;" x1="1071" x2="1118" y1="674.2266" y2="674.2266"/><polygon fill="#A80036" points="1081,670.2266,1071,674.2266,1081,678.2266,1077,674.2266" style="stroke:#A80036;stroke-width:1.0;"/><text fill="#000000" font-family="sans-serif" font-size="13" lengthAdjust="spacing" textLength="57" x="1083" y="656.3701">rankings[]</text><path d="M1076,682.2266 L1076,741.2266 L1229,741.2266 L1229,692.2266 L1219,682.2266 L1076,682.2266 " fill="#FBFB77" filter="url(#f1p4gwq93tjn9r)" style="stroke:#A80036;stroke-width:1.0;"/><path d="M1219,682.2266 L1219,692.2266 L1229,692.2266 L1219,682.2266 " fill="#FBFB77" style="stroke:#A80036;stroke-width:1.0;"/><text fill="#000000" font-family="sans-serif" font-size="13" lengthAdjust="spacing" textLength="127" x="1082" y="700.7217">Tier ranking feeds into</text><text fill="#000000" font-family="sans-serif" font-size="13" lengthAdjust="spacing" textLength="126" x="1082" y="717.0732">UC-05 Tiered Supplier</text><text fill="#000000" font-family="sans-serif" font-size="13" lengthAdjust="spacing" textLength="132" x="1082" y="733.4248">Selection Logic (FR15)</text><polygon fill="#A80036" points="1271,768.6328,1281,772.6328,1271,776.6328,1275,772.6328" style="stroke:#A80036;stroke-width:1.0;"/><line style="stroke:#A80036;stroke-width:1.0;" x1="1071" x2="1277" y1="772.6328" y2="772.6328"/><text fill="#000000" font-family="sans-serif" font-size="13" lengthAdjust="spacing" textLength="171" x="1078" y="767.7764">updateTierRankings(rankings)</text><polygon fill="#A80036" points="1082,798.9844,1072,802.9844,1082,806.9844,1078,802.9844" style="stroke:#A80036;stroke-width:1.0;"/><line style="stroke:#A80036;stroke-width:1.0;stroke-dasharray:2.0,2.0;" x1="1076" x2="1287" y1="802.9844" y2="802.9844"/><text fill="#000000" font-family="sans-serif" font-size="13" lengthAdjust="spacing" textLength="46" x="1088" y="798.1279">updated</text><polygon fill="#A80036" points="741,829.3359,731,833.3359,741,837.3359,737,833.3359" style="stroke:#A80036;stroke-width:1.0;"/><line style="stroke:#A80036;stroke-width:1.0;stroke-dasharray:2.0,2.0;" x1="735" x2="1065" y1="833.3359" y2="833.3359"/><text fill="#000000" font-family="sans-serif" font-size="13" lengthAdjust="spacing" textLength="163" x="747" y="828.4795">newTierRank{supplierId, tier}</text><polygon fill="#A80036" points="398,859.6875,388,863.6875,398,867.6875,394,863.6875" style="stroke:#A80036;stroke-width:1.0;"/><line style="stroke:#A80036;stroke-width:1.0;stroke-dasharray:2.0,2.0;" x1="392" x2="724" y1="863.6875" y2="863.6875"/><text fill="#000000" font-family="sans-serif" font-size="13" lengthAdjust="spacing" textLength="309" x="404" y="858.8311">auditReport{accuracyScore, tierRank, deliveryHistory}</text><polygon fill="#A80036" points="47,890.0391,37,894.0391,47,898.0391,43,894.0391" style="stroke:#A80036;stroke-width:1.0;"/><line style="stroke:#A80036;stroke-width:1.0;stroke-dasharray:2.0,2.0;" x1="41" x2="381" y1="894.0391" y2="894.0391"/><text fill="#000000" font-family="sans-serif" font-size="13" lengthAdjust="spacing" textLength="317" x="53" y="889.1826">displayPerformanceReportAndTierRanking(auditReport)</text><!--MD5=[6e69d40d6c81f9691f99990342aedc26]
@startuml UC-20_Undergo_Performance_Audit
title UC-20 — Undergo Performance Audit

box "Actors"
actor ":Supplier" as Supplier
end box

box "System"
participant ":SupplierPortal" as SP
participant ":AuditController" as AC
participant ":TierRankingService" as TRS
database ":Database" as DB
end box

Supplier -> SP : openPerformanceReport()
activate SP

SP -> AC : requestPerformanceAudit(supplierId)
activate AC

AC -> DB : fetchDeliveryHistory(supplierId)
activate DB
DB - -> AC : deliveryHistory{ordersPlaced, itemsOrdered, itemsCorrectlyReceived}[]
deactivate DB

AC -> AC : calculateAccuracyScore(deliveryHistory)
activate AC
AC - -> AC : accuracyScore
deactivate AC
note right of AC
  Accuracy Score =
  itemsCorrectlyReceived / itemsOrdered
  (updated after every inbound reconciliation — FR14)
end note

AC -> DB : persistUpdatedAccuracyScore(supplierId, accuracyScore)
activate DB
DB - -> AC : saved
deactivate DB

AC -> TRS : updateSupplierTierRanking(supplierId, accuracyScore)
activate TRS
TRS -> DB : fetchAllSupplierScores()
activate DB
DB - -> TRS : allScores[]
deactivate DB
TRS -> TRS : recomputeTierRankings(allScores)
activate TRS
TRS - -> TRS : rankings[]
deactivate TRS
note right of TRS
  Tier ranking feeds into
  UC-05 Tiered Supplier
  Selection Logic (FR15)
end note
TRS -> DB : updateTierRankings(rankings)
activate DB
DB - -> TRS : updated
deactivate DB
TRS - -> AC : newTierRank{supplierId, tier}
deactivate TRS

AC - -> SP : auditReport{accuracyScore, tierRank, deliveryHistory}
deactivate AC

SP - -> Supplier : displayPerformanceReportAndTierRanking(auditReport)
deactivate SP

@enduml

PlantUML version 1.2021.00(Sun Jan 10 12:25:05 EET 2021)
(MIT source distribution)
Java Runtime: Java(TM) SE Runtime Environment
JVM: Java HotSpot(TM) 64-Bit Server VM
Default Encoding: UTF-8
Language: en
Country: US
--></g></svg>